<svg width="26" height="26" viewBox="0 0 26 26" fill="none" xmlns="http://www.w3.org/2000/svg">
<g clip-path="url(#clip0_1484_4491)">
<path d="M18.9352 18C18.8506 18 18.7679 18.0252 18.6976 18.0722C18.6273 18.1193 18.5725 18.1861 18.5402 18.2643C18.5079 18.3425 18.4995 18.4285 18.5161 18.5115C18.5327 18.5944 18.5736 18.6706 18.6335 18.7304C18.6934 18.7901 18.7697 18.8307 18.8527 18.8471C18.9357 18.8634 19.0217 18.8548 19.0998 18.8223C19.1779 18.7898 19.2446 18.7348 19.2914 18.6644C19.3383 18.5939 19.3632 18.5112 19.363 18.4266C19.3627 18.3133 19.3175 18.2048 19.2373 18.1248C19.1571 18.0448 19.0484 17.9999 18.9352 18Z" fill="black"/>
<path d="M20.4354 18C20.3508 18 20.2681 18.0251 20.1977 18.0721C20.1274 18.1192 20.0726 18.186 20.0403 18.2642C20.0079 18.3424 19.9995 18.4284 20.0161 18.5114C20.0327 18.5943 20.0735 18.6705 20.1334 18.7303C20.1933 18.79 20.2696 18.8307 20.3526 18.8471C20.4356 18.8634 20.5216 18.8548 20.5997 18.8223C20.6778 18.7898 20.7445 18.7348 20.7914 18.6644C20.8383 18.5939 20.8632 18.5112 20.863 18.4266C20.863 18.3705 20.8519 18.3149 20.8304 18.2631C20.8089 18.2113 20.7774 18.1642 20.7377 18.1246C20.698 18.085 20.6508 18.0536 20.5989 18.0322C20.5471 18.0108 20.4915 17.9999 20.4354 18Z" fill="black"/>
<path d="M21.9274 18C21.8428 18 21.7601 18.0252 21.6898 18.0722C21.6195 18.1193 21.5647 18.1861 21.5324 18.2643C21.5001 18.3425 21.4917 18.4285 21.5083 18.5115C21.5249 18.5944 21.5658 18.6706 21.6257 18.7304C21.6856 18.7901 21.7619 18.8307 21.8449 18.8471C21.9279 18.8634 22.0139 18.8548 22.092 18.8223C22.1701 18.7898 22.2368 18.7348 22.2836 18.6644C22.3305 18.5939 22.3554 18.5112 22.3552 18.4266C22.3549 18.3133 22.3097 18.2048 22.2295 18.1248C22.1493 18.0448 22.0406 17.9999 21.9274 18Z" fill="black"/>
<path d="M23.2348 1.95H23.2348C23.7196 1.95054 24.1843 2.14334 24.527 2.48608C24.8697 2.82882 25.0625 3.29352 25.0631 3.77822V3.77828V5.88065C25.0631 5.95287 25.0344 6.02213 24.9833 6.07319C24.9323 6.12425 24.863 6.15294 24.7908 6.15294C24.7186 6.15294 24.6493 6.12425 24.5983 6.07319C24.5472 6.02212 24.5185 5.95287 24.5185 5.88065V3.77767C24.5181 3.43732 24.3827 3.11102 24.1421 2.87035C23.9014 2.62969 23.5751 2.49431 23.2348 2.4939C23.2348 2.4939 23.2348 2.4939 23.2347 2.4939L23.2348 2.4439V1.95ZM23.2348 1.95L1.77828 1.95L1.77822 1.95M23.2348 1.95L1.77822 1.95M1.77822 1.95C1.29352 1.95054 0.828817 2.14334 0.486076 2.48608C0.143335 2.82882 -0.0494556 3.29352 -0.05 3.77822V3.77828M1.77822 1.95L-0.05 3.77828M-0.05 3.77828L-0.05 18.5069L-0.05 18.5069M-0.05 3.77828L-0.05 18.5069M-0.05 18.5069C-0.0494556 18.9917 0.143335 19.4564 0.486076 19.7991C0.828817 20.1418 1.29352 20.3346 1.77822 20.3352H1.77828M-0.05 18.5069L1.77828 20.3352M1.77828 20.3352H9.9099L9.5234 22.921H7.50079H7.50073C7.30146 22.9213 7.11043 23.0006 6.96955 23.1415C6.82867 23.2824 6.74945 23.4735 6.74926 23.6728V23.6728V23.723V23.7231C6.74951 23.9223 6.82876 24.1133 6.96964 24.2542C7.11051 24.3951 7.3015 24.4743 7.50073 24.4746H7.50079H17.5118H17.5119C17.7112 24.4744 17.9022 24.3952 18.0431 24.2543C18.1841 24.1134 18.2633 23.9224 18.2636 23.7231V23.723V23.6728V23.6728C18.2634 23.4734 18.1841 23.2824 18.0432 23.1414C17.9023 23.0005 17.7112 22.9212 17.5119 22.921H17.5118H15.4894L15.1027 20.3352M1.77828 20.3352H15.1027M15.1027 20.3352H23.2348H23.2348C23.7196 20.3346 24.1843 20.1418 24.527 19.7991C24.8697 19.4564 25.0625 18.9917 25.0631 18.5069V18.5069V10.1367C25.0631 10.0645 25.0344 9.99528 24.9833 9.94421C24.9323 9.89315 24.863 9.86446 24.7908 9.86446C24.7186 9.86446 24.6493 9.89315 24.5983 9.94421C24.5472 9.99528 24.5185 10.0645 24.5185 10.1367V16.7535H0.49457V3.77761L15.1027 20.3352ZM7.50083 23.93C7.44595 23.93 7.39332 23.9081 7.35451 23.8693C7.3157 23.8305 7.29387 23.7779 7.29383 23.723V23.6728C7.29387 23.6179 7.3157 23.5653 7.35451 23.5264C7.39332 23.4876 7.44596 23.4657 7.50088 23.4656H17.5118C17.5391 23.4656 17.5661 23.471 17.5912 23.4815C17.6164 23.492 17.6393 23.5073 17.6585 23.5266C17.6778 23.5459 17.693 23.5688 17.7034 23.5941C17.7137 23.619 17.719 23.6458 17.719 23.6728L7.50083 23.93ZM7.50083 23.93H17.5118C17.5668 23.93 17.6194 23.9082 17.6583 23.8694C17.6971 23.8306 17.719 23.7779 17.719 23.723V23.6737V23.6736L7.50083 23.93ZM24.5176 18.5059V17.2972L0.49457 17.2981L0.49457 18.5059L0.49457 18.506M24.5176 18.5059L0.83566 19.4486C0.58563 19.1986 0.444982 18.8596 0.44457 18.506H0.49457M24.5176 18.5059C24.5172 18.8463 24.3818 19.1726 24.1412 19.4133C23.9005 19.6539 23.5742 19.7893 23.2338 19.7897H1.77834M24.5176 18.5059L1.77834 19.7897M0.49457 18.506C0.494982 18.8463 0.630362 19.1726 0.871015 19.4133C1.11168 19.6539 1.43798 19.7893 1.77834 19.7897M0.49457 18.506L1.77834 19.7897M1.77828 2.4939L1.77834 2.4939L1.77828 2.4939ZM17.7496 23.575C17.7624 23.606 17.769 23.6393 17.769 23.6728L7.50079 23.98C7.43266 23.9799 7.36733 23.9528 7.31915 23.9047C7.27098 23.8565 7.24389 23.7912 7.24383 23.723V23.6728C7.24389 23.6046 7.27097 23.5393 7.31914 23.4911C7.36731 23.4429 7.43264 23.4157 7.50079 23.4156H17.5118C17.5457 23.4156 17.5792 23.4223 17.6104 23.4353C17.6417 23.4483 17.6701 23.4674 17.6939 23.4913C17.7178 23.5153 17.7368 23.5437 17.7496 23.575ZM14.5528 20.3352L14.938 22.921H10.0748L10.4601 20.3352H14.5528Z" fill="black" stroke="black" stroke-width="0.1"/>
<path d="M24.8004 6.5457C24.7282 6.5457 24.6589 6.57439 24.6079 6.62545C24.5568 6.67652 24.5281 6.74577 24.5281 6.81799V9.23578C24.5281 9.308 24.5568 9.37725 24.6079 9.42832C24.6589 9.47938 24.7282 9.50807 24.8004 9.50807C24.8726 9.50807 24.9419 9.47938 24.9929 9.42832C25.044 9.37725 25.0727 9.308 25.0727 9.23578V6.81799C25.0727 6.74577 25.044 6.67652 24.9929 6.62545C24.9419 6.57439 24.8726 6.5457 24.8004 6.5457Z" fill="black" stroke="black" stroke-width="0.1"/>
<path d="M22.843 7.86052V7.86046C22.842 7.00826 22.5031 6.19125 21.9004 5.58867C21.2978 4.9861 20.4808 4.64719 19.6286 4.64629H19.6285C19.5563 4.64629 19.4871 4.67498 19.436 4.72604C19.3849 4.7771 19.3562 4.84636 19.3562 4.91857V7.86052C19.3562 7.93273 19.3849 8.00199 19.436 8.05305C19.4871 8.10412 19.5563 8.1328 19.6285 8.1328H22.5707C22.6429 8.1328 22.7122 8.10412 22.7632 8.05305C22.8143 8.00199 22.843 7.93273 22.843 7.86052ZM22.2844 7.58932L19.9008 7.58826V5.20466C20.5109 5.26815 21.0813 5.53953 21.5157 5.97413C21.9501 6.40873 22.2212 6.97921 22.2844 7.58932Z" fill="black" stroke="black" stroke-width="0.1"/>
<path d="M19.1073 8.37384H21.7763C21.8485 8.37384 21.9178 8.40253 21.9689 8.45359C22.0199 8.50465 22.0486 8.57391 22.0486 8.64613V8.64629C22.0466 9.2573 21.8712 9.85519 21.5426 10.3704C21.2141 10.8856 20.746 11.2969 20.1929 11.5564L20.1929 11.5564C19.7567 11.7609 19.28 11.8647 18.7983 11.8602C18.3165 11.8557 17.842 11.7429 17.4097 11.5303C16.9774 11.3176 16.5984 11.0105 16.3008 10.6317C16.0032 10.2528 15.7945 9.81191 15.6902 9.34155C15.586 8.8712 15.5888 8.38342 15.6984 7.9143C15.8081 7.44517 16.0218 7.00669 16.3237 6.63128C16.6257 6.25587 17.0081 5.95313 17.4428 5.74545C17.8776 5.53777 18.3534 5.43046 18.8352 5.43145M19.1073 8.37384L18.8352 5.43145M19.1073 8.37384V5.70374C19.1073 5.63152 19.0787 5.56227 19.0276 5.5112C18.9765 5.46016 18.9073 5.43148 18.8352 5.43145M19.1073 8.37384L18.8352 5.43145M16.1656 8.64571C16.1665 7.9757 16.4189 7.33043 16.8728 6.83765C17.3145 6.3582 17.9156 6.05709 18.5628 5.98981V8.64596C18.5615 8.68644 18.5704 8.7266 18.5887 8.76273L19.7101 11.1672C19.4291 11.2662 19.1333 11.3168 18.8351 11.3167C18.1271 11.3158 17.4484 11.0341 16.9479 10.5333C16.4474 10.0325 16.1661 9.35368 16.1656 8.64571ZM21.0841 10.0778C20.8607 10.4279 20.5591 10.7212 20.2033 10.9348L19.2628 8.91797H21.4904C21.4465 9.33054 21.3076 9.72759 21.0841 10.0778Z" fill="black" stroke="black" stroke-width="0.1"/>
<path d="M13.1254 9.38945H12.2692C12.1969 9.38945 12.1277 9.41814 12.0766 9.4692C12.0256 9.52027 11.9969 9.58952 11.9969 9.66174C11.9969 9.73395 12.0256 9.80321 12.0766 9.85427C12.1277 9.90534 12.1969 9.93402 12.2692 9.93402H13.1254C13.1976 9.93402 13.2669 9.90534 13.3179 9.85427C13.369 9.80321 13.3977 9.73395 13.3977 9.66174C13.3977 9.58952 13.369 9.52027 13.3179 9.4692C13.2669 9.41814 13.1976 9.38945 13.1254 9.38945Z" fill="#5B34CD" stroke="#5B34CD" stroke-width="0.1"/>
<path d="M12.4227 10.7981L12.4227 10.7981L13.278 11.3816L13.278 11.3816L13.2498 11.4229C13.2986 11.4561 13.3321 11.5074 13.3431 11.5653C13.354 11.6232 13.3415 11.6832 13.3083 11.7319C13.2751 11.7806 13.2239 11.8142 13.1659 11.8251C13.108 11.8361 13.0481 11.8236 12.9993 11.7904L12.4227 10.7981ZM12.4227 10.7981C12.3931 10.778 12.3599 10.7638 12.3249 10.7565C12.2898 10.7492 12.2537 10.7489 12.2186 10.7555C12.1835 10.7622 12.15 10.7757 12.12 10.7953C12.0901 10.8149 12.0643 10.8402 12.0442 10.8697C12.0241 10.8993 12.0099 10.9325 12.0026 10.9675C11.9953 11.0025 11.995 11.0386 12.0016 11.0738C12.0083 11.1089 12.0218 11.1424 12.0414 11.1723C12.061 11.2022 12.0862 11.228 12.1158 11.2482L12.4227 10.7981Z" fill="#5B34CD" stroke="#5B34CD" stroke-width="0.1"/>
<path d="M13.2857 7.94153C13.3454 7.90084 13.3865 7.8381 13.3999 7.76713C13.4133 7.69616 13.398 7.62275 13.3573 7.56307C13.3166 7.50339 13.2539 7.46232 13.1829 7.44889C13.1119 7.43546 13.0385 7.45078 12.9789 7.49147L12.9789 7.49147L12.1235 8.07497L12.1235 8.07498C12.0754 8.10778 12.0391 8.15512 12.0199 8.21006C12.0007 8.26499 11.9996 8.32464 12.0168 8.38024C12.034 8.43584 12.0685 8.48448 12.1154 8.51902C12.1486 8.54355 12.1868 8.56005 12.227 8.56755V8.57257L12.277 8.57261C12.3317 8.57266 12.3851 8.55624 12.4303 8.52551L12.4304 8.52545L13.2857 7.94153ZM13.2857 7.94153L13.2575 7.90022M13.2857 7.94153L13.2857 7.94151L13.2575 7.90022M13.2575 7.90022L12.4022 8.48416L12.1517 8.11628L13.007 7.53278C13.0558 7.49956 13.1157 7.48705 13.1736 7.49802C13.2316 7.50898 13.2828 7.54251 13.316 7.59124C13.3492 7.63996 13.3617 7.69989 13.3508 7.75784C13.3398 7.81578 13.3063 7.86699 13.2575 7.90022Z" fill="#5B34CD" stroke="#5B34CD" stroke-width="0.1"/>
<path d="M11.2299 9.64608L11.2299 9.67075C11.224 9.85599 11.1538 10.0337 11.0309 10.1732C10.9152 10.3046 10.7599 10.3939 10.5893 10.4283V8.86463C10.7597 8.89895 10.9148 8.98813 11.0305 9.11933C11.1588 9.26485 11.2296 9.4521 11.2299 9.64608ZM9.36267 5.80817C9.37927 5.76771 9.4033 5.73075 9.43348 5.69917L9.43364 5.6991L9.43934 5.69341C9.48893 5.64397 9.55204 5.61032 9.62072 5.5967C9.68939 5.58309 9.76057 5.59011 9.82526 5.61688C9.88996 5.64365 9.94528 5.68898 9.98425 5.74715C10.0232 5.80532 10.0441 5.87372 10.0442 5.94374V13.3784C10.0442 13.4723 10.007 13.5623 9.94058 13.6286C9.87422 13.695 9.7842 13.7323 9.69034 13.7323C9.59649 13.7323 9.50647 13.695 9.44011 13.6286C9.37374 13.5623 9.33645 13.4723 9.33645 13.3784L9.33645 5.94363L9.33645 5.94332C9.33616 5.89698 9.34507 5.85104 9.36267 5.80817ZM4.45618 14.8528C4.6699 14.8528 4.87485 14.7679 5.02596 14.6168C5.17707 14.4657 5.26197 14.2607 5.26197 14.047V11.8742H5.55166L8.79188 13.3168V13.378C8.79188 13.6162 8.88654 13.8448 9.05504 14.0133C9.22353 14.1818 9.45206 14.2764 9.69034 14.2764C9.92863 14.2764 10.1572 14.1818 10.3257 14.0133C10.4941 13.8448 10.5888 13.6162 10.5888 13.378V10.9781C10.9068 10.9409 11.2016 10.791 11.4193 10.5548C11.6473 10.3072 11.7739 9.98295 11.7739 9.64635C11.7739 9.30975 11.6473 8.98546 11.4193 8.7379C11.2016 8.50166 10.9068 8.35178 10.5888 8.31461V5.94363C10.5888 5.82559 10.5656 5.7087 10.5204 5.59964C10.4752 5.49058 10.409 5.39148 10.3255 5.30801C10.2421 5.22454 10.143 5.15833 10.0339 5.11315C9.92484 5.06798 9.80795 5.04473 9.6899 5.04473C9.57185 5.04473 9.45496 5.06798 9.3459 5.11315C9.23684 5.15833 9.13775 5.22454 9.05428 5.30801C8.97081 5.39148 8.90459 5.49058 8.85942 5.59964C8.81424 5.7087 8.79099 5.82559 8.79099 5.94363V6.0043L5.55166 7.44652H3.61707C3.0299 7.44652 2.46677 7.67977 2.05157 8.09497C1.63638 8.51016 1.40312 9.07329 1.40312 9.66046C1.40312 10.2476 1.63638 10.8108 2.05157 11.226C2.46677 11.6412 3.0299 11.8744 3.61707 11.8744H3.65065V14.0473C3.65071 14.2609 3.7356 14.4658 3.88665 14.6168C4.03771 14.7679 4.24256 14.8527 4.45618 14.8528ZM4.7174 14.047C4.7174 14.1163 4.68988 14.1827 4.64089 14.2317C4.59191 14.2807 4.52547 14.3082 4.4562 14.3082C4.38692 14.3082 4.32049 14.2807 4.2715 14.2317C4.22252 14.1827 4.195 14.1163 4.195 14.047V11.8742H4.7174V14.047ZM8.79077 6.60035V12.7212L5.88148 11.4256V7.89576L8.79077 6.60035ZM1.94747 9.66069C1.94794 9.21805 2.124 8.79368 2.43702 8.4807C2.75004 8.16772 3.17446 7.99171 3.61712 7.99131H5.33713V11.3301H3.61712C3.17446 11.3297 2.75004 11.1537 2.43702 10.8407C2.124 10.5277 1.94794 10.1033 1.94747 9.66069Z" fill="#5B34CD" stroke="#5B34CD" stroke-width="0.1"/>
<path d="M22.0779 12.8875H15.527C15.4548 12.8875 15.3855 12.9162 15.3344 12.9673C15.2834 13.0183 15.2547 13.0876 15.2547 13.1598C15.2547 13.232 15.2834 13.3013 15.3344 13.3523C15.3855 13.4034 15.4548 13.4321 15.527 13.4321H22.0779C22.1502 13.4321 22.2194 13.4034 22.2705 13.3523C22.3215 13.3013 22.3502 13.232 22.3502 13.1598C22.3502 13.0876 22.3215 13.0183 22.2705 12.9673C22.2194 12.9162 22.1502 12.8875 22.0779 12.8875Z" fill="black" stroke="black" stroke-width="0.1"/>
<path d="M22.0779 14.4441H15.527C15.4548 14.4441 15.3855 14.4728 15.3344 14.5239C15.2834 14.575 15.2547 14.6442 15.2547 14.7164C15.2547 14.7886 15.2834 14.8579 15.3344 14.909C15.3855 14.96 15.4548 14.9887 15.527 14.9887H22.0779C22.1502 14.9887 22.2194 14.96 22.2705 14.909C22.3215 14.8579 22.3502 14.7886 22.3502 14.7164C22.3502 14.6442 22.3215 14.575 22.2705 14.5239C22.2194 14.4728 22.1502 14.4441 22.0779 14.4441Z" fill="black" stroke="black" stroke-width="0.1"/>
</g>
<defs>
<clipPath id="clip0_1484_4491">
<rect width="26" height="26" fill="white"/>
</clipPath>
</defs>
</svg>
