<svg width="26" height="26" viewBox="0 0 26 26" fill="none" xmlns="http://www.w3.org/2000/svg">
<g clip-path="url(#clip0_1484_4360)">
<path d="M24.4833 1.15234H1.51667C0.680372 1.15234 0 1.83272 0 2.66901V23.0357C0 23.872 0.680372 24.5523 1.51667 24.5523H24.4833C25.3196 24.5523 26 23.872 26 23.0357V2.66901C26 1.83272 25.3196 1.15234 24.4833 1.15234ZM25.1333 23.0357C25.1333 23.3941 24.8418 23.6857 24.4833 23.6857H1.51667C1.15826 23.6857 0.866667 23.3941 0.866667 23.0357V8.08567H25.1333L25.1333 23.0357ZM25.1333 7.21901H0.866667V2.66901C0.866667 2.31059 1.15826 2.01901 1.51667 2.01901H24.4833C24.8417 2.01901 25.1333 2.31059 25.1333 2.66901L25.1333 7.21901Z" fill="black"/>
<path d="M12.6599 21.9509H23.316C23.5553 21.9509 23.7493 21.7568 23.7493 21.5175C23.7493 21.2782 23.5553 21.0842 23.316 21.0842H22.9713V14.1508C22.9713 13.673 22.5825 13.2842 22.1046 13.2842H19.9379C19.46 13.2842 19.0713 13.673 19.0713 14.1508V16.7508H16.9046V15.8842C16.9046 15.4063 16.5158 15.0175 16.0379 15.0175H13.8713C13.3934 15.0175 13.0046 15.4063 13.0046 15.8842V21.0842H12.6599C12.4206 21.0842 12.2266 21.2782 12.2266 21.5175C12.2266 21.7568 12.4206 21.9509 12.6599 21.9509ZM19.9379 14.1509H22.1046V21.0842H19.9379V14.1509ZM16.9046 17.6175H19.0713V21.0842H16.9046V17.6175ZM13.8713 15.8842H16.0379V21.0842H13.8713V15.8842Z" fill="black"/>
<path d="M13.4966 12.7478L14.7556 11.6687L17.5127 13.6381C17.5886 13.6923 17.6767 13.7188 17.7645 13.7188C17.8761 13.7188 17.9871 13.6758 18.071 13.5919L21.971 9.6919C22.1402 9.52267 22.1402 9.2483 21.971 9.07907C21.8018 8.90984 21.5274 8.90984 21.3582 9.07907L17.7178 12.7195L14.9831 10.7662C14.8209 10.6503 14.6006 10.6601 14.4493 10.7898L12.9326 12.0898C12.7509 12.2456 12.7298 12.5191 12.8856 12.7008C13.0413 12.8826 13.3149 12.9036 13.4966 12.7478Z" fill="black"/>
<path d="M6.70937 15.8856C7.40386 15.8856 8.05678 15.6151 8.54785 15.124C9.03893 14.633 9.30937 13.98 9.30937 13.2856C9.30937 12.5911 9.03893 11.9382 8.54785 11.4471C8.05678 10.956 7.40386 10.6855 6.70937 10.6855C6.01489 10.6855 5.36197 10.956 4.8709 11.4471C4.37982 11.9381 4.10938 12.5911 4.10938 13.2856C4.10938 13.98 4.37982 14.633 4.8709 15.124C5.36198 15.6151 6.01489 15.8856 6.70937 15.8856ZM6.70937 11.5522C7.66514 11.5522 8.44271 12.3298 8.44271 13.2856C8.44271 14.2413 7.66514 15.0189 6.70937 15.0189C5.75361 15.0189 4.97604 14.2413 4.97604 13.2856C4.97604 12.3298 5.75362 11.5522 6.70937 11.5522Z" fill="#5B34CD"/>
<path d="M2.39426 21.9519C2.63358 21.9519 2.82759 21.7579 2.82759 21.5186C2.82759 19.3681 4.57713 17.6186 6.7276 17.6186C8.87807 17.6186 10.6276 19.3681 10.6276 21.5186C10.6276 21.7579 10.8216 21.9519 11.0609 21.9519C11.3003 21.9519 11.4943 21.7579 11.4943 21.5186C11.4943 20.8753 11.3682 20.251 11.1195 19.6631C10.8794 19.0954 10.5358 18.5857 10.0982 18.1481C9.66053 17.7105 9.1508 17.3668 8.58315 17.1267C7.99521 16.878 7.37092 16.752 6.72761 16.752C6.0843 16.752 5.46 16.878 4.87207 17.1267C4.30441 17.3668 3.79468 17.7105 3.35706 18.1481C2.91944 18.5857 2.57581 19.0954 2.33571 19.6631C2.08703 20.251 1.96094 20.8753 1.96094 21.5186C1.96093 21.7579 2.15494 21.9519 2.39426 21.9519Z" fill="#5B34CD"/>
<path d="M3.69427 2.88672C2.7385 2.88672 1.96094 3.66429 1.96094 4.62005C1.96094 5.57582 2.7385 6.35338 3.69427 6.35338C4.65003 6.35338 5.4276 5.57582 5.4276 4.62005C5.4276 3.6643 4.65003 2.88672 3.69427 2.88672ZM3.69427 5.48672C3.21638 5.48672 2.8276 5.09794 2.8276 4.62005C2.8276 4.14217 3.21638 3.75338 3.69427 3.75338C4.17215 3.75338 4.56094 4.14216 4.56094 4.62005C4.56094 5.09794 4.17215 5.48672 3.69427 5.48672Z" fill="black"/>
<path d="M8.13177 2.88672C7.17601 2.88672 6.39844 3.66429 6.39844 4.62005C6.39844 5.57582 7.176 6.35338 8.13177 6.35338C9.08754 6.35338 9.8651 5.57582 9.8651 4.62005C9.8651 3.6643 9.08753 2.88672 8.13177 2.88672ZM8.13177 5.48672C7.65389 5.48672 7.2651 5.09794 7.2651 4.62005C7.2651 4.14217 7.65388 3.75338 8.13177 3.75338C8.60966 3.75338 8.99844 4.14216 8.99844 4.62005C8.99844 5.09794 8.60965 5.48672 8.13177 5.48672Z" fill="black"/>
<path d="M12.5615 2.88672C11.6057 2.88672 10.8281 3.66429 10.8281 4.62005C10.8281 5.57582 11.6057 6.35338 12.5615 6.35338C13.5172 6.35338 14.2948 5.57582 14.2948 4.62005C14.2948 3.6643 13.5172 2.88672 12.5615 2.88672ZM12.5615 5.48672C12.0836 5.48672 11.6948 5.09794 11.6948 4.62005C11.6948 4.14217 12.0836 3.75338 12.5615 3.75338C13.0393 3.75338 13.4281 4.14216 13.4281 4.62005C13.4281 5.09794 13.0393 5.48672 12.5615 5.48672Z" fill="black"/>
</g>
<defs>
<clipPath id="clip0_1484_4360">
<rect width="26" height="26" fill="white"/>
</clipPath>
</defs>
</svg>
