<svg width="52" height="52" viewBox="0 0 52 52" fill="none" xmlns="http://www.w3.org/2000/svg">
<path d="M48.7502 25.1875C48.5347 25.1875 48.328 25.2731 48.1757 25.4255C48.0233 25.5778 47.9377 25.7845 47.9377 26C47.9391 31.3221 46.0052 36.4631 42.4965 40.4648C38.9878 44.4665 34.1437 47.0558 28.8671 47.7501C23.5905 48.4444 18.2414 47.1963 13.817 44.2385C9.39252 41.2807 6.19455 36.815 4.81913 31.6737L7.74413 33.2174C7.93483 33.3181 8.15771 33.3388 8.36372 33.2751C8.56972 33.2114 8.74199 33.0685 8.84263 32.8778C8.94326 32.6871 8.96401 32.4642 8.90032 32.2582C8.83663 32.0522 8.69371 31.8799 8.503 31.7793L4.10331 29.4572C4.001 29.3927 3.88619 29.3505 3.76644 29.3335C3.64669 29.3165 3.5247 29.325 3.40846 29.3585C3.29222 29.3919 3.18437 29.4496 3.09198 29.5276C2.99959 29.6057 2.92476 29.7024 2.87238 29.8114L0.874439 34.6263C0.791907 34.8254 0.791852 35.0492 0.874286 35.2483C0.95672 35.4475 1.11489 35.6057 1.314 35.6882C1.51311 35.7708 1.73685 35.7708 1.93601 35.6884C2.13516 35.606 2.29341 35.4478 2.37594 35.2487L3.42325 32.7251C5.04229 38.1456 8.55751 42.8028 13.3267 45.8456C18.0959 48.8884 23.8006 50.1138 29.3986 49.2978C34.9967 48.4819 40.1143 45.6791 43.8165 41.4015C47.5187 37.124 49.5583 31.6572 49.5627 26C49.5627 25.7845 49.4771 25.5778 49.3247 25.4255C49.1723 25.2731 48.9657 25.1875 48.7502 25.1875Z" fill="black"/>
<path d="M50.6862 16.3121C50.5876 16.2712 50.4819 16.2501 50.3752 16.2501C50.2685 16.25 50.1628 16.271 50.0642 16.3118C49.9655 16.3527 49.8759 16.4125 49.8004 16.488C49.725 16.5634 49.6651 16.653 49.6242 16.7516L48.5769 19.2752C46.9579 13.8547 43.4427 9.19755 38.6735 6.15473C33.9043 3.11191 28.1996 1.88654 22.6015 2.70248C17.0035 3.51842 11.8859 6.32122 8.1837 10.5988C4.48151 14.8763 2.44189 20.3431 2.4375 26.0003C2.4375 26.2158 2.5231 26.4225 2.67548 26.5748C2.82785 26.7272 3.03451 26.8128 3.25 26.8128C3.46549 26.8128 3.67215 26.7272 3.82452 26.5748C3.9769 26.4225 4.0625 26.2158 4.0625 26.0003C4.06111 20.6782 5.99501 15.5372 9.50371 11.5355C13.0124 7.53385 17.8565 4.94453 23.1331 4.25022C28.4097 3.55591 33.7587 4.80398 38.1832 7.76179C42.6077 10.7196 45.8056 15.1853 47.1811 20.3266L44.2561 18.7829C44.0654 18.6822 43.8425 18.6615 43.6365 18.7252C43.4305 18.7889 43.2582 18.9318 43.1576 19.1225C43.0569 19.3132 43.0362 19.5361 43.0999 19.7421C43.1636 19.9481 43.3065 20.1204 43.4972 20.221L47.9001 22.5456C48.0017 22.6126 48.1165 22.6567 48.2368 22.6751C48.357 22.6934 48.4798 22.6854 48.5967 22.6516C48.7136 22.6179 48.8217 22.5591 48.9137 22.4795C49.0057 22.3999 49.0793 22.3013 49.1294 22.1905L51.1274 17.3756C51.1685 17.2768 51.1897 17.1709 51.1897 17.0639C51.1898 16.957 51.1687 16.851 51.1277 16.7522C51.0867 16.6534 51.0266 16.5636 50.9508 16.4881C50.8751 16.4126 50.7851 16.3527 50.6862 16.3121Z" fill="black"/>
<path d="M26 36.5625C28.0891 36.5625 30.1312 35.943 31.8682 34.7824C33.6052 33.6218 34.959 31.9721 35.7585 30.0421C36.5579 28.1121 36.7671 25.9883 36.3595 23.9394C35.952 21.8904 34.946 20.0084 33.4688 18.5312C31.9916 17.054 30.1096 16.048 28.0606 15.6405C26.0117 15.2329 23.888 15.4421 21.9579 16.2415C20.0279 17.041 18.3782 18.3948 17.2176 20.1318C16.057 21.8688 15.4375 23.9109 15.4375 26C15.4407 28.8004 16.5546 31.4851 18.5347 33.4653C20.5149 35.4454 23.1996 36.5593 26 36.5625ZM26 17.0625C27.7677 17.0625 29.4956 17.5867 30.9654 18.5687C32.4352 19.5508 33.5807 20.9467 34.2572 22.5798C34.9336 24.2129 35.1106 26.0099 34.7658 27.7436C34.4209 29.4773 33.5697 31.0698 32.3198 32.3198C31.0698 33.5697 29.4773 34.4209 27.7436 34.7658C26.0099 35.1106 24.2129 34.9336 22.5798 34.2572C20.9467 33.5807 19.5508 32.4352 18.5687 30.9654C17.5867 29.4956 17.0625 27.7677 17.0625 26C17.0653 23.6305 18.0078 21.3588 19.6833 19.6833C21.3588 18.0078 23.6305 17.0653 26 17.0625Z" fill="#5B34CD"/>
<path d="M26.4184 26.6963L30.4809 24.2588C30.5744 24.2049 30.6563 24.1329 30.7216 24.047C30.787 23.9611 30.8346 23.8631 30.8616 23.7586C30.8887 23.6541 30.8947 23.5453 30.8792 23.4384C30.8637 23.3316 30.8271 23.229 30.7715 23.1364C30.7159 23.0439 30.6424 22.9634 30.5554 22.8996C30.4683 22.8358 30.3694 22.79 30.2645 22.7648C30.1595 22.7397 30.0506 22.7357 29.9441 22.7531C29.8375 22.7705 29.7356 22.8089 29.6441 22.8662L26.8125 24.5643V19.5C26.8125 19.2845 26.7269 19.0778 26.5745 18.9255C26.4222 18.7731 26.2155 18.6875 26 18.6875C25.7845 18.6875 25.5778 18.7731 25.4255 18.9255C25.2731 19.0778 25.1875 19.2845 25.1875 19.5V26C25.1875 26.1438 25.2257 26.285 25.2982 26.4093C25.3707 26.5335 25.4748 26.6362 25.6 26.707C25.7251 26.7778 25.8668 26.8142 26.0106 26.8123C26.1544 26.8104 26.2952 26.7704 26.4184 26.6963Z" fill="#5B34CD"/>
<path d="M8.775 22.7663C8.59148 22.8037 8.42654 22.9034 8.30809 23.0485C8.18964 23.1936 8.12496 23.3752 8.125 23.5625V28.4375C8.12496 28.6248 8.18964 28.8064 8.30809 28.9515C8.42654 29.0966 8.59148 29.1963 8.775 29.2337L11.8869 29.8561C12.208 31.0428 12.6813 32.183 13.2949 33.2483L11.5375 35.893C11.4333 36.0493 11.3864 36.2369 11.405 36.4238C11.4235 36.6108 11.5062 36.7856 11.6391 36.9184L15.0841 40.3626C15.2169 40.4954 15.3916 40.5782 15.5786 40.5967C15.7655 40.6152 15.9531 40.5683 16.1094 40.4641L18.7533 38.7018C19.8184 39.3153 20.9583 39.7886 22.1447 40.1099L22.7679 43.2217C22.8046 43.4056 22.9038 43.5711 23.0486 43.6901C23.1935 43.8092 23.375 43.8745 23.5625 43.875H28.4375C28.6248 43.875 28.8064 43.8104 28.9515 43.6919C29.0966 43.5735 29.1963 43.4085 29.2337 43.225L29.8569 40.1131C31.0433 39.7918 32.1832 39.3186 33.2483 38.7051L35.8922 40.4625C36.0485 40.5667 36.2361 40.6136 36.423 40.595C36.61 40.5765 36.7847 40.4938 36.9176 40.3609L40.3626 36.9167C40.4954 36.7839 40.5782 36.6092 40.5967 36.4222C40.6152 36.2353 40.5683 36.0477 40.4641 35.8914L38.7018 33.2467C39.3155 32.1814 39.7887 31.0412 40.1099 29.8545L43.2217 29.2321C43.4056 29.1954 43.5711 29.0962 43.6901 28.9514C43.8092 28.8065 43.8745 28.625 43.875 28.4375V23.5625C43.875 23.3752 43.8104 23.1936 43.6919 23.0485C43.5735 22.9034 43.4085 22.8037 43.225 22.7663L40.1131 22.1439C39.792 20.9572 39.3187 19.817 38.7051 18.7517L40.4625 16.107C40.5667 15.9507 40.6136 15.7631 40.595 15.5762C40.5765 15.3892 40.4938 15.2144 40.3609 15.0816L36.9159 11.6374C36.7831 11.5046 36.6084 11.4218 36.4214 11.4033C36.2345 11.3848 36.0469 11.4317 35.8906 11.5359L33.2467 13.2982C32.1816 12.6847 31.0417 12.2114 29.8553 11.8901L29.2337 8.775C29.1963 8.59148 29.0966 8.42654 28.9515 8.30809C28.8064 8.18964 28.6248 8.12496 28.4375 8.125H23.5625C23.3752 8.12496 23.1936 8.18964 23.0485 8.30809C22.9034 8.42654 22.8037 8.59148 22.7663 8.775L22.1431 11.8869C20.9567 12.2082 19.8168 12.6814 18.7517 13.2949L16.1078 11.5375C15.9515 11.4333 15.7639 11.3864 15.577 11.405C15.39 11.4235 15.2153 11.5062 15.0824 11.6391L11.6374 15.0832C11.5046 15.2161 11.4218 15.3908 11.4033 15.5778C11.3848 15.7647 11.4317 15.9523 11.5359 16.1086L13.3055 18.7639C12.6954 19.8256 12.2241 20.9613 11.9031 22.1431L8.775 22.7663ZM15.7568 13.26L18.2756 14.9378C18.4056 15.0244 18.5578 15.0717 18.714 15.074C18.8702 15.0763 19.0238 15.0335 19.1563 14.9508C20.3465 14.2063 21.6521 13.6645 23.0198 13.3477C23.1722 13.3126 23.3113 13.2342 23.4202 13.1219C23.5292 13.0096 23.6034 12.8683 23.634 12.7148L24.2288 9.75H27.7712L28.3644 12.7124C28.395 12.8658 28.4692 13.0072 28.5781 13.1194C28.6871 13.2317 28.8262 13.3102 28.9786 13.3453C30.3464 13.6626 31.652 14.2049 32.8421 14.95C32.9746 15.0327 33.1281 15.0755 33.2844 15.0732C33.4406 15.0709 33.5928 15.0236 33.7228 14.937L36.2416 13.2592L38.7449 15.7617L37.0662 18.2804C36.9796 18.4105 36.9323 18.5627 36.93 18.7189C36.9277 18.8751 36.9705 19.0287 37.0532 19.1612C37.7978 20.3517 38.3395 21.6575 38.6563 23.0254C38.6915 23.1779 38.7699 23.317 38.8822 23.4259C38.9945 23.5349 39.1358 23.6091 39.2892 23.6397L42.25 24.2288V27.7712L39.2876 28.3636C39.1342 28.3941 38.9928 28.4684 38.8806 28.5773C38.7683 28.6863 38.6898 28.8254 38.6547 28.9778C38.3374 30.3458 37.7951 31.6517 37.05 32.8421C36.9673 32.9746 36.9245 33.1281 36.9268 33.2844C36.9291 33.4406 36.9764 33.5928 37.063 33.7228L38.7416 36.2416L36.2375 38.7424L33.7188 37.0646C33.5887 36.978 33.4365 36.9307 33.2803 36.9284C33.1241 36.9261 32.9705 36.9689 32.838 37.0516C31.6478 37.7962 30.3422 38.3379 28.9746 38.6547C28.8221 38.6898 28.683 38.7683 28.5741 38.8806C28.4651 38.9928 28.3909 39.1342 28.3603 39.2876L27.7712 42.25H24.2288L23.6356 39.2876C23.605 39.1342 23.5308 38.9928 23.4219 38.8806C23.3129 38.7683 23.1738 38.6898 23.0214 38.6547C21.6536 38.3374 20.348 37.7951 19.1579 37.05C19.0254 36.9673 18.8719 36.9245 18.7156 36.9268C18.5594 36.9291 18.4072 36.9764 18.2772 37.063L15.7584 38.7408L13.2568 36.2375L14.9354 33.7188C15.022 33.5887 15.0693 33.4365 15.0716 33.2803C15.0739 33.1241 15.0311 32.9705 14.9484 32.838C14.2038 31.6475 13.6621 30.3417 13.3453 28.9737C13.3102 28.8213 13.2317 28.6822 13.1194 28.5733C13.0072 28.4643 12.8658 28.3901 12.7124 28.3595L9.75 27.7712V24.2288L12.7124 23.6364C12.8646 23.6032 13.0046 23.5281 13.1164 23.4196C13.2283 23.311 13.3075 23.1734 13.3453 23.0222C13.6626 21.6542 14.2049 20.3483 14.95 19.1579C15.0271 19.0235 15.0666 18.8708 15.0644 18.7158C15.0621 18.5608 15.0181 18.4093 14.937 18.2772L13.2584 15.7584L15.7568 13.26Z" fill="black"/>
</svg>
