<svg width="32" height="32" viewBox="0 0 32 32" fill="none" xmlns="http://www.w3.org/2000/svg">
<path d="M16.0035 3.44043C10.1584 3.44043 4.94371 7.64171 3.72099 13.3627C3.11011 16.2212 3.52163 19.2609 4.88451 21.8475C6.19619 24.3367 8.34658 26.3486 10.9194 27.4887C13.5955 28.675 16.6679 28.8817 19.4807 28.0727C22.1943 27.2926 24.6003 25.5803 26.2384 23.2817C29.6634 18.4763 29.2055 11.7262 25.176 7.42027C22.8144 4.89675 19.4602 3.44043 16.0035 3.44043ZM22.0288 16.6715L18.6048 20.178C17.7379 21.066 16.3677 19.7207 17.2311 18.8369L18.9587 17.0676H10.7712C10.1898 17.0676 9.70466 16.5822 9.70466 16.0011C9.70466 15.4199 10.1901 14.9345 10.7712 14.9345H18.9178L17.1559 13.1729C16.2803 12.2974 17.6378 10.9396 18.5133 11.8151L22.0208 15.3223C22.3927 15.6939 22.3962 16.2955 22.0288 16.6715Z" fill="#6B48D2"/>
<path d="M16.0035 3.44043C10.1584 3.44043 4.94371 7.64171 3.72099 13.3627C3.11011 16.2212 3.52163 19.2609 4.88451 21.8475C6.19619 24.3367 8.34658 26.3486 10.9194 27.4887C13.5955 28.675 16.6679 28.8817 19.4807 28.0727C22.1943 27.2926 24.6003 25.5803 26.2384 23.2817C29.6634 18.4763 29.2055 11.7262 25.176 7.42027C22.8144 4.89675 19.4602 3.44043 16.0035 3.44043ZM22.0288 16.6715L18.6048 20.178C17.7379 21.066 16.3677 19.7207 17.2311 18.8369L18.9587 17.0676H10.7712C10.1898 17.0676 9.70466 16.5822 9.70466 16.0011C9.70466 15.4199 10.1901 14.9345 10.7712 14.9345H18.9178L17.1559 13.1729C16.2803 12.2974 17.6378 10.9396 18.5133 11.8151L22.0208 15.3223C22.3927 15.6939 22.3962 16.2955 22.0288 16.6715Z" fill="url(#paint0_linear_1484_4278)"/>
<defs>
<linearGradient id="paint0_linear_1484_4278" x1="3.39609" y1="16.9075" x2="28.5881" y2="16.8011" gradientUnits="userSpaceOnUse">
<stop stop-color="#39C8C5"/>
<stop offset="1" stop-color="#601BCE"/>
</linearGradient>
</defs>
</svg>
