<svg width="26" height="26" viewBox="0 0 26 26" fill="none" xmlns="http://www.w3.org/2000/svg">
<g clip-path="url(#clip0_1484_4438)">
<path d="M23.1562 14.0278V6.06125C24.5322 5.863 25.5938 4.67959 25.5938 3.25C25.5938 1.68228 24.3181 0.40625 22.75 0.40625C21.1819 0.40625 19.9062 1.68228 19.9062 3.25H0.40625V19.5H12.6145C12.8257 22.8946 15.6471 25.5938 19.0938 25.5938C22.6777 25.5938 25.5938 22.6777 25.5938 19.0938C25.5938 17.0467 24.6403 15.2202 23.1562 14.0278ZM22.75 1.21875C23.87 1.21875 24.7812 2.12997 24.7812 3.25C24.7812 4.37003 23.87 5.28125 22.75 5.28125C21.63 5.28125 20.7188 4.37003 20.7188 3.25C20.7188 2.12997 21.63 1.21875 22.75 1.21875ZM1.21875 4.0625H20.0261C20.1232 4.38669 20.2776 4.68528 20.4758 4.95016L17.9912 7.43478C17.8319 7.35841 17.6564 7.3125 17.4688 7.3125C17.2811 7.3125 17.1056 7.35841 16.9467 7.43478L16.1281 6.61619C16.2041 6.45694 16.25 6.28144 16.25 6.09375C16.25 5.42181 15.7032 4.875 15.0312 4.875C14.3593 4.875 13.8125 5.42181 13.8125 6.09375C13.8125 6.28144 13.8584 6.45694 13.9348 6.61578L11.8974 8.65312C11.7382 8.57716 11.5627 8.53125 11.375 8.53125C10.7031 8.53125 10.1562 9.07806 10.1562 9.75C10.1562 10.4219 10.7031 10.9688 11.375 10.9688C12.0469 10.9688 12.5938 10.4219 12.5938 9.75C12.5938 9.56231 12.5478 9.38681 12.4715 9.22797L14.5088 7.19063C14.6681 7.26659 14.8436 7.3125 15.0312 7.3125C15.2189 7.3125 15.3944 7.26659 15.5533 7.19022L16.3719 8.00881C16.2959 8.16806 16.25 8.34356 16.25 8.53125C16.25 9.20319 16.7968 9.75 17.4688 9.75C18.1407 9.75 18.6875 9.20319 18.6875 8.53125C18.6875 8.34356 18.6416 8.16806 18.5652 8.00922L21.0503 5.52459C21.422 5.80328 21.8632 5.99219 22.3438 6.06166V13.4737C21.3862 12.9175 20.2784 12.5938 19.0938 12.5938C17.1519 12.5938 15.4107 13.4542 14.2188 14.809V13H11.7812V17.875H12.7124C12.662 18.1403 12.6315 18.4121 12.6145 18.6875H1.21875V4.0625ZM17.4688 8.125C17.6926 8.125 17.875 8.307 17.875 8.53125C17.875 8.7555 17.6926 8.9375 17.4688 8.9375C17.2449 8.9375 17.0625 8.7555 17.0625 8.53125C17.0625 8.307 17.2449 8.125 17.4688 8.125ZM14.625 6.09375C14.625 5.8695 14.8074 5.6875 15.0312 5.6875C15.2551 5.6875 15.4375 5.8695 15.4375 6.09375C15.4375 6.318 15.2551 6.5 15.0312 6.5C14.8074 6.5 14.625 6.318 14.625 6.09375ZM11.7812 9.75C11.7812 9.97425 11.5988 10.1562 11.375 10.1562C11.1512 10.1562 10.9688 9.97425 10.9688 9.75C10.9688 9.52575 11.1512 9.34375 11.375 9.34375C11.5988 9.34375 11.7812 9.52575 11.7812 9.75ZM19.0938 22.3438C17.3018 22.3438 15.8438 20.8857 15.8438 19.0938C15.8438 17.3018 17.3018 15.8438 19.0938 15.8438C20.8857 15.8438 22.3438 17.3018 22.3438 19.0938C22.3438 20.8857 20.8857 22.3438 19.0938 22.3438ZM13.4062 15.9538C13.2117 16.3048 13.0508 16.6758 12.9232 17.0625H12.5938V13.8125H13.4062V15.9538ZM18.6875 13.427V15.052C16.6376 15.2567 15.0312 16.991 15.0312 19.0938C15.0312 19.6881 15.1629 20.2516 15.3932 20.761L13.9839 21.5747C13.6175 20.824 13.4062 19.9838 13.4062 19.0938C13.4062 16.0948 15.741 13.6366 18.6875 13.427ZM19.0938 24.7812C17.1381 24.7812 15.4099 23.7888 14.3861 22.2808L15.8011 21.4638C16.5397 22.4867 17.7385 23.1562 19.0938 23.1562C20.449 23.1562 21.6478 22.4867 22.3864 21.4638L23.8014 22.2808C22.7776 23.7888 21.0494 24.7812 19.0938 24.7812ZM24.2036 21.5747L22.7943 20.761C23.0246 20.2516 23.1562 19.6881 23.1562 19.0938C23.1562 16.991 21.5499 15.2563 19.5 15.052V13.427C22.4465 13.6366 24.7812 16.0948 24.7812 19.0938C24.7812 19.9838 24.57 20.824 24.2036 21.5747Z" fill="black"/>
<path d="M19.0938 16.6562C17.7495 16.6562 16.6562 17.7495 16.6562 19.0938C16.6562 20.438 17.7495 21.5312 19.0938 21.5312C20.438 21.5312 21.5312 20.438 21.5312 19.0938C21.5312 17.7495 20.438 16.6562 19.0938 16.6562ZM19.0938 20.7188C18.1976 20.7188 17.4688 19.9899 17.4688 19.0938C17.4688 18.1976 18.1976 17.4688 19.0938 17.4688C19.9899 17.4688 20.7188 18.1976 20.7188 19.0938C20.7188 19.9899 19.9899 20.7188 19.0938 20.7188Z" fill="black"/>
<path d="M2.03125 4.875H2.84375V5.6875H2.03125V4.875Z" fill="black"/>
<path d="M3.65625 4.875H9.34375V5.6875H3.65625V4.875Z" fill="black"/>
<path d="M2.03125 6.5H2.84375V7.3125H2.03125V6.5Z" fill="black"/>
<path d="M3.65625 6.5H9.34375V7.3125H3.65625V6.5Z" fill="black"/>
<path d="M2.03125 8.125H2.84375V8.9375H2.03125V8.125Z" fill="black"/>
<path d="M3.65625 8.125H9.34375V8.9375H3.65625V8.125Z" fill="black"/>
<path d="M2.03125 9.75H2.84375V10.5625H2.03125V9.75Z" fill="black"/>
<path d="M3.65625 9.75H9.34375V10.5625H3.65625V9.75Z" fill="black"/>
<path d="M2.03125 17.875H4.46875V13.8125H2.03125V17.875ZM2.84375 14.625H3.65625V17.0625H2.84375V14.625Z" fill="#5B34CD"/>
<path d="M5.28125 17.875H7.71875V14.625H5.28125V17.875ZM6.09375 15.4375H6.90625V17.0625H6.09375V15.4375Z" fill="#5B34CD"/>
<path d="M8.53125 17.875H10.9688V11.375H8.53125V17.875ZM9.34375 12.1875H10.1562V17.0625H9.34375V12.1875Z" fill="#5B34CD"/>
</g>
<defs>
<clipPath id="clip0_1484_4438">
<rect width="26" height="26" fill="white"/>
</clipPath>
</defs>
</svg>
