<svg width="1400" height="1815" viewBox="0 0 1400 1815" fill="none" xmlns="http://www.w3.org/2000/svg">
<g clip-path="url(#clip0_1596_3405)">
<rect width="1400" height="1815" fill="white"/>
<g opacity="0.19">
<path d="M132.32 1863.04C355.61 2076.55 593.166 1903.12 626.888 1601.48C658.648 1317.37 636.68 1002.57 952.279 1080.47C1181.8 1137.12 1456.17 951.13 1507.74 845.631" stroke="#6B48D2" stroke-miterlimit="10"/>
<path d="M132.32 1863.04C355.61 2076.55 593.166 1903.12 626.888 1601.48C658.648 1317.37 636.68 1002.57 952.279 1080.47C1181.8 1137.12 1456.17 951.13 1507.74 845.631" stroke="url(#paint0_linear_1596_3405)" stroke-miterlimit="10"/>
</g>
<g opacity="0.22">
<path d="M124.577 1852.95C271.481 2003.25 435.029 1972.62 522.548 1845.92C567.344 1781.06 598.123 1693.01 610.019 1592.94C615.746 1546.08 621.42 1498.97 627.331 1453.08C657.056 1222.32 691.487 1033.31 953.621 1097.51C1010.01 1111.27 1068.91 1110.42 1126.33 1097.78C1307.46 1057.92 1477.96 937.946 1515.48 861.195" stroke="#6B48D2" stroke-width="1.02" stroke-miterlimit="10"/>
<path d="M124.577 1852.95C271.481 2003.25 435.029 1972.62 522.548 1845.92C567.344 1781.06 598.123 1693.01 610.019 1592.94C615.746 1546.08 621.42 1498.97 627.331 1453.08C657.056 1222.32 691.487 1033.31 953.621 1097.51C1010.01 1111.27 1068.91 1110.42 1126.33 1097.78C1307.46 1057.92 1477.96 937.946 1515.48 861.195" stroke="url(#paint1_linear_1596_3405)" stroke-width="1.02" stroke-miterlimit="10"/>
</g>
<g opacity="0.25">
<path d="M116.829 1842.85C262.159 2001.47 434.453 1968.98 512.536 1840.06C553.327 1772.71 580.341 1683.42 593.147 1584.38C599.235 1537.31 606.941 1490.64 614.733 1445.27C653.405 1220.2 694.456 1051.24 954.968 1114.53C1011.88 1128.26 1071.17 1127.12 1128.69 1112.18C1312.81 1064.37 1487.21 950.431 1523.22 876.75" stroke="#6B48D2" stroke-width="1.04" stroke-miterlimit="10"/>
<path d="M116.829 1842.85C262.159 2001.47 434.453 1968.98 512.536 1840.06C553.327 1772.71 580.341 1683.42 593.147 1584.38C599.235 1537.31 606.941 1490.64 614.733 1445.27C653.405 1220.2 694.456 1051.24 954.968 1114.53C1011.88 1128.26 1071.17 1127.12 1128.69 1112.18C1312.81 1064.37 1487.21 950.431 1523.22 876.75" stroke="url(#paint2_linear_1596_3405)" stroke-width="1.04" stroke-miterlimit="10"/>
</g>
<g opacity="0.28">
<path d="M109.087 1832.76C252.843 1999.7 433.785 1964.99 502.53 1834.2C539.342 1764.16 562.737 1673.85 576.285 1575.83C582.816 1528.56 592.444 1482.36 602.145 1437.47C649.566 1218.2 697.428 1069.18 956.318 1131.56C1013.76 1145.26 1073.43 1143.78 1131.03 1126.58C1318.18 1070.72 1496.45 962.919 1530.96 892.309" stroke="#6B48D2" stroke-width="1.06" stroke-miterlimit="10"/>
<path d="M109.087 1832.76C252.843 1999.7 433.785 1964.99 502.53 1834.2C539.342 1764.16 562.737 1673.85 576.285 1575.83C582.816 1528.56 592.444 1482.36 602.145 1437.47C649.566 1218.2 697.428 1069.18 956.318 1131.56C1013.76 1145.26 1073.43 1143.78 1131.03 1126.58C1318.18 1070.72 1496.45 962.919 1530.96 892.309" stroke="url(#paint3_linear_1596_3405)" stroke-width="1.06" stroke-miterlimit="10"/>
</g>
<g opacity="0.31">
<path d="M101.336 1822.66C243.518 1997.92 432.954 1960.65 492.512 1828.35C525.341 1755.43 545.142 1664.3 559.407 1567.28C566.385 1519.82 577.897 1474.1 589.544 1429.67C645.505 1216.32 700.394 1087.12 957.662 1148.6C1015.62 1162.27 1075.7 1160.41 1133.39 1140.99C1323.58 1076.97 1505.69 975.416 1538.71 907.875" stroke="#6B48D2" stroke-width="1.08" stroke-miterlimit="10"/>
<path d="M101.336 1822.66C243.518 1997.92 432.954 1960.65 492.512 1828.35C525.341 1755.43 545.142 1664.3 559.407 1567.28C566.385 1519.82 577.897 1474.1 589.544 1429.67C645.505 1216.32 700.394 1087.12 957.662 1148.6C1015.62 1162.27 1075.7 1160.41 1133.39 1140.99C1323.58 1076.97 1505.69 975.416 1538.71 907.875" stroke="url(#paint4_linear_1596_3405)" stroke-width="1.08" stroke-miterlimit="10"/>
</g>
<g opacity="0.35">
<path d="M93.5953 1812.57C234.204 1996.15 431.923 1955.98 482.509 1822.5C511.3 1746.52 527.568 1654.74 542.54 1558.74C549.976 1511.06 563.317 1465.87 576.958 1421.88C641.229 1214.5 703.367 1105.07 959.014 1165.63C1017.5 1179.27 1077.96 1177.01 1135.74 1155.4C1328.98 1083.13 1514.94 987.909 1546.46 923.442" stroke="#6B48D2" stroke-width="1.1" stroke-miterlimit="10"/>
<path d="M93.5953 1812.57C234.204 1996.15 431.923 1955.98 482.509 1822.5C511.3 1746.52 527.568 1654.74 542.54 1558.74C549.976 1511.06 563.317 1465.87 576.958 1421.88C641.229 1214.5 703.367 1105.07 959.014 1165.63C1017.5 1179.27 1077.96 1177.01 1135.74 1155.4C1328.98 1083.13 1514.94 987.909 1546.46 923.442" stroke="url(#paint5_linear_1596_3405)" stroke-width="1.1" stroke-miterlimit="10"/>
</g>
<g opacity="0.38">
<path d="M85.8497 1802.47C224.885 1994.38 430.626 1951.02 472.5 1816.64C497.182 1737.43 510.004 1645.17 525.671 1550.18C533.562 1502.31 548.7 1457.64 564.363 1414.07C636.708 1212.72 706.332 1123 960.356 1182.66C1019.37 1196.27 1080.22 1193.57 1138.09 1169.8C1334.37 1089.19 1524.18 1000.39 1554.2 938.996" stroke="#6B48D2" stroke-width="1.12" stroke-miterlimit="10"/>
<path d="M85.8497 1802.47C224.885 1994.38 430.626 1951.02 472.5 1816.64C497.182 1737.43 510.004 1645.17 525.671 1550.18C533.562 1502.31 548.7 1457.64 564.363 1414.07C636.708 1212.72 706.332 1123 960.356 1182.66C1019.37 1196.27 1080.22 1193.57 1138.09 1169.8C1334.37 1089.19 1524.18 1000.39 1554.2 938.996" stroke="url(#paint6_linear_1596_3405)" stroke-width="1.12" stroke-miterlimit="10"/>
</g>
<g opacity="0.41">
<path d="M78.0999 1792.37C215.562 1992.6 429.038 1945.82 462.486 1810.78C482.943 1728.2 492.457 1635.6 508.798 1541.62C517.161 1493.55 534.042 1449.43 551.763 1406.25C631.942 1210.97 709.168 1141.48 961.702 1199.68C1021.21 1213.39 1082.48 1210.08 1140.44 1184.19C1339.75 1095.15 1533.43 1012.87 1561.94 954.537" stroke="#6B48D2" stroke-width="1.13" stroke-miterlimit="10"/>
<path d="M78.0999 1792.37C215.562 1992.6 429.038 1945.82 462.486 1810.78C482.943 1728.2 492.457 1635.6 508.798 1541.62C517.161 1493.55 534.042 1449.43 551.763 1406.25C631.942 1210.97 709.168 1141.48 961.702 1199.68C1021.21 1213.39 1082.48 1210.08 1140.44 1184.19C1339.75 1095.15 1533.43 1012.87 1561.94 954.537" stroke="url(#paint7_linear_1596_3405)" stroke-width="1.13" stroke-miterlimit="10"/>
</g>
<g opacity="0.44">
<path d="M70.3592 1782.28C206.254 1990.83 427.154 1940.42 452.486 1804.94C468.572 1718.88 474.927 1626.05 491.934 1533.08C500.766 1484.81 519.338 1441.24 539.177 1398.48C626.939 1209.25 712.133 1159.48 963.057 1216.74C1023.08 1230.44 1084.73 1226.63 1142.8 1198.62C1345.11 1101.07 1542.68 1025.39 1569.69 970.129" stroke="#6B48D2" stroke-width="1.15" stroke-miterlimit="10"/>
<path d="M70.3592 1782.28C206.254 1990.83 427.154 1940.42 452.486 1804.94C468.572 1718.88 474.927 1626.05 491.934 1533.08C500.766 1484.81 519.338 1441.24 539.177 1398.48C626.939 1209.25 712.133 1159.48 963.057 1216.74C1023.08 1230.44 1084.73 1226.63 1142.8 1198.62C1345.11 1101.07 1542.68 1025.39 1569.69 970.129" stroke="url(#paint8_linear_1596_3405)" stroke-width="1.15" stroke-miterlimit="10"/>
</g>
<g opacity="0.47">
<path d="M62.6139 1772.19C196.936 1989.05 424.954 1934.89 442.477 1799.07C454.041 1709.46 457.41 1616.48 475.066 1524.52C484.374 1476.05 504.591 1433.02 526.589 1390.66C621.699 1207.45 715.105 1177.44 964.407 1233.76C1024.95 1247.43 1086.97 1243.1 1145.16 1213.02C1350.44 1106.87 1551.93 1037.87 1577.45 985.684" stroke="#6B48D2" stroke-width="1.17" stroke-miterlimit="10"/>
<path d="M62.6139 1772.19C196.936 1989.05 424.954 1934.89 442.477 1799.07C454.041 1709.46 457.41 1616.48 475.066 1524.52C484.374 1476.05 504.591 1433.02 526.589 1390.66C621.699 1207.45 715.105 1177.44 964.407 1233.76C1024.95 1247.43 1086.97 1243.1 1145.16 1213.02C1350.44 1106.87 1551.93 1037.87 1577.45 985.684" stroke="url(#paint9_linear_1596_3405)" stroke-width="1.17" stroke-miterlimit="10"/>
</g>
<g opacity="0.5">
<path d="M54.8614 1762.09C187.61 1987.28 422.456 1929.28 432.454 1793.22C439.306 1699.99 439.886 1606.93 458.183 1515.97C467.971 1467.3 489.781 1424.81 513.98 1382.86C616.213 1205.6 718.056 1195.4 965.742 1250.78C1026.82 1264.44 1089.2 1259.56 1147.49 1227.42C1355.71 1112.61 1561.16 1050.35 1585.17 1001.24" stroke="#6B48D2" stroke-width="1.19" stroke-miterlimit="10"/>
<path d="M54.8614 1762.09C187.61 1987.28 422.456 1929.28 432.454 1793.22C439.306 1699.99 439.886 1606.93 458.183 1515.97C467.971 1467.3 489.781 1424.81 513.98 1382.86C616.213 1205.6 718.056 1195.4 965.742 1250.78C1026.82 1264.44 1089.2 1259.56 1147.49 1227.42C1355.71 1112.61 1561.16 1050.35 1585.17 1001.24" stroke="url(#paint10_linear_1596_3405)" stroke-width="1.19" stroke-miterlimit="10"/>
</g>
<g opacity="0.53">
<path d="M47.1167 1752C178.291 1985.51 419.687 1923.64 422.449 1787.38C424.416 1690.51 422.395 1597.38 441.322 1507.43C451.601 1458.56 474.943 1416.6 501.393 1375.07C610.545 1203.7 721.028 1213.37 967.093 1267.83C1028.69 1281.46 1091.42 1276.02 1149.85 1241.84C1360.97 1118.3 1570.4 1062.86 1592.92 1016.81" stroke="#6B48D2" stroke-width="1.21" stroke-miterlimit="10"/>
<path d="M47.1167 1752C178.291 1985.51 419.687 1923.64 422.449 1787.38C424.416 1690.51 422.395 1597.38 441.322 1507.43C451.601 1458.56 474.943 1416.6 501.393 1375.07C610.545 1203.7 721.028 1213.37 967.093 1267.83C1028.69 1281.46 1091.42 1276.02 1149.85 1241.84C1360.97 1118.3 1570.4 1062.86 1592.92 1016.81" stroke="url(#paint11_linear_1596_3405)" stroke-width="1.21" stroke-miterlimit="10"/>
</g>
<g opacity="0.56">
<path d="M39.3744 1741.9C168.975 1983.74 416.669 1918.03 412.444 1781.52C409.332 1681.03 404.921 1587.82 424.449 1498.88C435.226 1449.8 460.049 1408.34 488.794 1367.26C604.669 1201.67 723.989 1231.3 968.432 1284.85C1030.55 1298.46 1093.62 1292.45 1152.19 1256.23C1366.18 1123.92 1579.64 1075.35 1600.65 1032.36" stroke="#6B48D2" stroke-width="1.23" stroke-miterlimit="10"/>
<path d="M39.3744 1741.9C168.975 1983.74 416.669 1918.03 412.444 1781.52C409.332 1681.03 404.921 1587.82 424.449 1498.88C435.226 1449.8 460.049 1408.34 488.794 1367.26C604.669 1201.67 723.989 1231.3 968.432 1284.85C1030.55 1298.46 1093.62 1292.45 1152.19 1256.23C1366.18 1123.92 1579.64 1075.35 1600.65 1032.36" stroke="url(#paint12_linear_1596_3405)" stroke-width="1.23" stroke-miterlimit="10"/>
</g>
<g opacity="0.59">
<path d="M31.6243 1731.81C159.651 1981.96 413.425 1912.44 402.43 1775.66C394.062 1671.59 387.443 1578.26 407.58 1490.32C418.858 1441.05 445.126 1400.05 476.201 1359.46C598.651 1199.54 726.963 1249.24 969.784 1301.89C1032.43 1315.47 1095.83 1308.88 1154.55 1270.64C1371.36 1129.49 1588.9 1087.84 1608.41 1047.93" stroke="#6B48D2" stroke-width="1.25" stroke-miterlimit="10"/>
<path d="M31.6243 1731.81C159.651 1981.96 413.425 1912.44 402.43 1775.66C394.062 1671.59 387.443 1578.26 407.58 1490.32C418.858 1441.05 445.126 1400.05 476.201 1359.46C598.651 1199.54 726.963 1249.24 969.784 1301.89C1032.43 1315.47 1095.83 1308.88 1154.55 1270.64C1371.36 1129.49 1588.9 1087.84 1608.41 1047.93" stroke="url(#paint13_linear_1596_3405)" stroke-width="1.25" stroke-miterlimit="10"/>
</g>
<g opacity="0.63">
<path d="M23.8786 1721.71C150.332 1980.19 410.004 1906.95 392.425 1769.81C378.633 1662.2 369.995 1568.72 390.714 1481.77C402.505 1432.31 430.163 1391.73 463.617 1351.65C592.493 1197.26 729.942 1267.16 971.138 1318.91C1034.3 1332.46 1098.02 1325.27 1156.91 1285.03C1376.49 1135 1598.15 1100.32 1616.16 1063.48" stroke="#6B48D2" stroke-width="1.27" stroke-miterlimit="10"/>
<path d="M23.8786 1721.71C150.332 1980.19 410.004 1906.95 392.425 1769.81C378.633 1662.2 369.995 1568.72 390.714 1481.77C402.505 1432.31 430.163 1391.73 463.617 1351.65C592.493 1197.26 729.942 1267.16 971.138 1318.91C1034.3 1332.46 1098.02 1325.27 1156.91 1285.03C1376.49 1135 1598.15 1100.32 1616.16 1063.48" stroke="url(#paint14_linear_1596_3405)" stroke-width="1.27" stroke-miterlimit="10"/>
</g>
<g opacity="0.66">
<path d="M16.1339 1711.62C141.014 1978.42 406.428 1901.56 382.416 1763.95C363.031 1652.89 352.551 1559.18 373.846 1473.22C386.15 1423.57 415.162 1383.37 451.023 1343.85C586.212 1194.85 732.918 1285.09 972.481 1335.94C1036.17 1349.46 1100.19 1341.67 1159.26 1299.44C1381.58 1140.49 1607.39 1112.81 1623.9 1079.04" stroke="#6B48D2" stroke-width="1.29" stroke-miterlimit="10"/>
<path d="M16.1339 1711.62C141.014 1978.42 406.428 1901.56 382.416 1763.95C363.031 1652.89 352.551 1559.18 373.846 1473.22C386.15 1423.57 415.162 1383.37 451.023 1343.85C586.212 1194.85 732.918 1285.09 972.481 1335.94C1036.17 1349.46 1100.19 1341.67 1159.26 1299.44C1381.58 1140.49 1607.39 1112.81 1623.9 1079.04" stroke="url(#paint15_linear_1596_3405)" stroke-width="1.29" stroke-miterlimit="10"/>
</g>
<g opacity="0.69">
<path d="M8.39009 1701.52C131.696 1976.64 402.728 1896.27 372.409 1758.09C347.294 1643.67 335.12 1549.63 356.976 1464.67C369.799 1414.82 400.136 1374.98 438.426 1336.05C579.846 1192.3 735.896 1303 973.829 1352.97C1038.05 1366.46 1102.35 1358.06 1161.61 1313.84C1386.63 1145.92 1616.64 1125.29 1631.65 1094.6" stroke="#6B48D2" stroke-width="1.31" stroke-miterlimit="10"/>
<path d="M8.39009 1701.52C131.696 1976.64 402.728 1896.27 372.409 1758.09C347.294 1643.67 335.12 1549.63 356.976 1464.67C369.799 1414.82 400.136 1374.98 438.426 1336.05C579.846 1192.3 735.896 1303 973.829 1352.97C1038.05 1366.46 1102.35 1358.06 1161.61 1313.84C1386.63 1145.92 1616.64 1125.29 1631.65 1094.6" stroke="url(#paint16_linear_1596_3405)" stroke-width="1.31" stroke-miterlimit="10"/>
</g>
<g opacity="0.72">
<path d="M0.640882 1691.42C122.37 1974.86 398.933 1891.11 362.389 1752.24C331.418 1634.54 317.679 1540.09 340.096 1456.11C353.45 1406.08 385.079 1366.53 425.82 1328.25C573.408 1189.59 738.86 1320.91 975.161 1370C1039.91 1383.45 1104.5 1374.44 1163.94 1328.25C1391.61 1151.34 1625.86 1137.79 1639.37 1110.16" stroke="#6B48D2" stroke-width="1.33" stroke-miterlimit="10"/>
<path d="M0.640882 1691.42C122.37 1974.86 398.933 1891.11 362.389 1752.24C331.418 1634.54 317.679 1540.09 340.096 1456.11C353.45 1406.08 385.079 1366.53 425.82 1328.25C573.408 1189.59 738.86 1320.91 975.161 1370C1039.91 1383.45 1104.5 1374.44 1163.94 1328.25C1391.61 1151.34 1625.86 1137.79 1639.37 1110.16" stroke="url(#paint17_linear_1596_3405)" stroke-width="1.33" stroke-miterlimit="10"/>
</g>
<g opacity="0.75">
<path d="M-7.10594 1681.34C113.049 1973.09 395.063 1886.07 352.383 1746.4C315.45 1625.52 300.269 1530.56 323.23 1447.57C337.125 1397.34 370.015 1358.05 413.231 1320.46C566.941 1186.76 741.838 1338.82 976.51 1387.04C1041.78 1400.46 1106.64 1390.83 1166.3 1342.67C1396.57 1156.74 1635.11 1150.3 1647.12 1125.73" stroke="#6B48D2" stroke-width="1.35" stroke-miterlimit="10"/>
<path d="M-7.10594 1681.34C113.049 1973.09 395.063 1886.07 352.383 1746.4C315.45 1625.52 300.269 1530.56 323.23 1447.57C337.125 1397.34 370.015 1358.05 413.231 1320.46C566.941 1186.76 741.838 1338.82 976.51 1387.04C1041.78 1400.46 1106.64 1390.83 1166.3 1342.67C1396.57 1156.74 1635.11 1150.3 1647.12 1125.73" stroke="url(#paint18_linear_1596_3405)" stroke-width="1.35" stroke-miterlimit="10"/>
</g>
<g opacity="0.78">
<path d="M-14.8446 1671.24C103.737 1971.32 391.143 1881.15 342.38 1740.53C299.402 1616.59 282.875 1521.02 306.371 1439.01C320.812 1388.61 354.943 1349.51 400.653 1312.65C560.479 1183.76 744.831 1356.7 977.877 1404.06C1043.67 1417.44 1108.8 1407.19 1168.67 1357.06C1401.51 1162.08 1644.38 1162.77 1654.88 1141.28" stroke="#6B48D2" stroke-width="1.37" stroke-miterlimit="10"/>
<path d="M-14.8446 1671.24C103.737 1971.32 391.143 1881.15 342.38 1740.53C299.402 1616.59 282.875 1521.02 306.371 1439.01C320.812 1388.61 354.943 1349.51 400.653 1312.65C560.479 1183.76 744.831 1356.7 977.877 1404.06C1043.67 1417.44 1108.8 1407.19 1168.67 1357.06C1401.51 1162.08 1644.38 1162.77 1654.88 1141.28" stroke="url(#paint19_linear_1596_3405)" stroke-width="1.37" stroke-miterlimit="10"/>
</g>
<g opacity="0.81">
<path d="M-22.5915 1661.14C94.4239 1969.54 387.189 1876.36 332.37 1734.68C283.27 1607.77 265.484 1511.49 289.494 1430.46C304.48 1379.87 339.838 1340.93 388.05 1304.84C553.986 1180.64 747.897 1374.12 979.211 1421.09C1045.56 1434.3 1110.91 1423.56 1171.01 1371.46C1406.38 1167.41 1653.61 1175.26 1662.62 1156.84" stroke="#6B48D2" stroke-width="1.38" stroke-miterlimit="10"/>
<path d="M-22.5915 1661.14C94.4239 1969.54 387.189 1876.36 332.37 1734.68C283.27 1607.77 265.484 1511.49 289.494 1430.46C304.48 1379.87 339.838 1340.93 388.05 1304.84C553.986 1180.64 747.897 1374.12 979.211 1421.09C1045.56 1434.3 1110.91 1423.56 1171.01 1371.46C1406.38 1167.41 1653.61 1175.26 1662.62 1156.84" stroke="url(#paint20_linear_1596_3405)" stroke-width="1.38" stroke-miterlimit="10"/>
</g>
<g opacity="0.84">
<path d="M-30.3388 1651.05C85.1029 1967.77 383.216 1871.69 322.363 1728.83C267.083 1599.05 248.107 1501.98 272.627 1421.91C288.176 1371.15 324.751 1332.31 375.456 1297.05C547.523 1177.39 750.864 1392.07 980.556 1438.13C1047.43 1451.3 1113.03 1439.93 1173.36 1385.86C1411.22 1172.74 1662.86 1187.76 1670.36 1172.4" stroke="#6B48D2" stroke-width="1.4" stroke-miterlimit="10"/>
<path d="M-30.3388 1651.05C85.1029 1967.77 383.216 1871.69 322.363 1728.83C267.083 1599.05 248.107 1501.98 272.627 1421.91C288.176 1371.15 324.751 1332.31 375.456 1297.05C547.523 1177.39 750.864 1392.07 980.556 1438.13C1047.43 1451.3 1113.03 1439.93 1173.36 1385.86C1411.22 1172.74 1662.86 1187.76 1670.36 1172.4" stroke="url(#paint21_linear_1596_3405)" stroke-width="1.4" stroke-miterlimit="10"/>
</g>
<g opacity="0.88">
<path d="M-38.0883 1640.95C75.7798 1966 379.234 1867.12 312.35 1722.97C250.846 1590.42 230.731 1492.46 255.758 1413.36C271.874 1362.42 309.651 1323.65 362.865 1289.25C541.083 1174.03 753.839 1410.01 981.913 1455.17C1049.31 1468.31 1115.15 1456.3 1175.72 1400.28C1416.02 1178.04 1672.1 1200.25 1678.1 1187.97" stroke="#6B48D2" stroke-width="1.42" stroke-miterlimit="10"/>
<path d="M-38.0883 1640.95C75.7798 1966 379.234 1867.12 312.35 1722.97C250.846 1590.42 230.731 1492.46 255.758 1413.36C271.874 1362.42 309.651 1323.65 362.865 1289.25C541.083 1174.03 753.839 1410.01 981.913 1455.17C1049.31 1468.31 1115.15 1456.3 1175.72 1400.28C1416.02 1178.04 1672.1 1200.25 1678.1 1187.97" stroke="url(#paint22_linear_1596_3405)" stroke-width="1.42" stroke-miterlimit="10"/>
</g>
<g opacity="0.91">
<path d="M-45.8351 1630.86C66.4594 1964.22 375.254 1862.66 302.333 1717.12C234.575 1581.88 213.358 1482.94 238.881 1404.81C255.575 1353.7 294.551 1314.95 350.261 1281.44C534.683 1170.54 756.795 1427.94 983.247 1472.2C1051.17 1485.31 1117.23 1472.66 1178.06 1414.68C1420.79 1183.32 1681.34 1212.74 1685.85 1203.53" stroke="#6B48D2" stroke-width="1.44" stroke-miterlimit="10"/>
<path d="M-45.8351 1630.86C66.4594 1964.22 375.254 1862.66 302.333 1717.12C234.575 1581.88 213.358 1482.94 238.881 1404.81C255.575 1353.7 294.551 1314.95 350.261 1281.44C534.683 1170.54 756.795 1427.94 983.247 1472.2C1051.17 1485.31 1117.23 1472.66 1178.06 1414.68C1420.79 1183.32 1681.34 1212.74 1685.85 1203.53" stroke="url(#paint23_linear_1596_3405)" stroke-width="1.44" stroke-miterlimit="10"/>
</g>
<g opacity="0.94">
<path d="M-53.5778 1620.76C57.143 1962.44 371.297 1858.29 292.33 1711.27C218.294 1573.42 196.011 1473.44 222.015 1396.26C239.29 1344.99 279.468 1306.22 337.676 1273.65C528.344 1166.96 759.777 1445.89 984.6 1489.23C1053.05 1502.32 1119.34 1489.02 1180.42 1429.09C1425.53 1188.6 1690.59 1225.23 1693.59 1219.09" stroke="#6B48D2" stroke-width="1.46" stroke-miterlimit="10"/>
<path d="M-53.5778 1620.76C57.143 1962.44 371.297 1858.29 292.33 1711.27C218.294 1573.42 196.011 1473.44 222.015 1396.26C239.29 1344.99 279.468 1306.22 337.676 1273.65C528.344 1166.96 759.777 1445.89 984.6 1489.23C1053.05 1502.32 1119.34 1489.02 1180.42 1429.09C1425.53 1188.6 1690.59 1225.23 1693.59 1219.09" stroke="url(#paint24_linear_1596_3405)" stroke-width="1.46" stroke-miterlimit="10"/>
</g>
<g opacity="0.97">
<path d="M-61.3207 1610.67C47.8265 1960.68 367.346 1854.01 282.324 1705.41C202.001 1565.04 178.805 1463.98 205.149 1387.71C223.111 1336.31 264.39 1297.45 325.083 1265.84C522.061 1163.28 762.744 1463.82 985.952 1506.26C1054.92 1519.32 1121.32 1505.27 1182.77 1443.49C1429.8 1193.44 1699.84 1237.72 1701.34 1234.65" stroke="#6B48D2" stroke-width="1.48" stroke-miterlimit="10"/>
<path d="M-61.3207 1610.67C47.8265 1960.68 367.346 1854.01 282.324 1705.41C202.001 1565.04 178.805 1463.98 205.149 1387.71C223.111 1336.31 264.39 1297.45 325.083 1265.84C522.061 1163.28 762.744 1463.82 985.952 1506.26C1054.92 1519.32 1121.32 1505.27 1182.77 1443.49C1429.8 1193.44 1699.84 1237.72 1701.34 1234.65" stroke="url(#paint25_linear_1596_3405)" stroke-width="1.48" stroke-miterlimit="10"/>
</g>
<path d="M-69.0677 1600.57C38.5059 1958.9 363.423 1849.81 272.313 1699.56C126.337 1458.81 157.163 1333.29 312.491 1258.04C579.611 1128.63 927.028 1725.27 1185.12 1457.89C1434.91 1199.12 1709.08 1250.21 1709.08 1250.21" stroke="#6B48D2" stroke-width="1.5" stroke-miterlimit="10"/>
<path d="M-69.0677 1600.57C38.5059 1958.9 363.423 1849.81 272.313 1699.56C126.337 1458.81 157.163 1333.29 312.491 1258.04C579.611 1128.63 927.028 1725.27 1185.12 1457.89C1434.91 1199.12 1709.08 1250.21 1709.08 1250.21" stroke="url(#paint26_linear_1596_3405)" stroke-width="1.5" stroke-miterlimit="10"/>
<g opacity="0.19">
<path d="M7.33022 709.715C84.6199 599.386 380.043 548.121 568.969 690.415C747.511 824.877 873.406 928.867 1092.93 821.219C1268.99 734.883 1941.44 810.556 2023.87 863.458" stroke="#6B48D2" stroke-width="0.25" stroke-miterlimit="10"/>
<path d="M7.33022 709.715C84.6199 599.386 380.043 548.121 568.969 690.415C747.511 824.877 873.406 928.867 1092.93 821.219C1268.99 734.883 1941.44 810.556 2023.87 863.458" stroke="url(#paint27_linear_1596_3405)" stroke-width="0.25" stroke-miterlimit="10"/>
</g>
<g opacity="0.22">
<path d="M2.51385 709.584C50.5892 630.588 204.987 584.437 352.49 610.308C424.914 623.019 498.519 650.314 560.957 696.255C593.654 720.134 624.645 742.475 654.276 762.328C790.509 853.082 905.198 896.318 1086.83 810.634C1118.79 795.671 1166.21 786.032 1223.28 780.843C1486.84 757.14 1959.42 811.409 2024.55 853.203" stroke="#6B48D2" stroke-width="0.3" stroke-miterlimit="10"/>
<path d="M2.51385 709.584C50.5892 630.588 204.987 584.437 352.49 610.308C424.914 623.019 498.519 650.314 560.957 696.255C593.654 720.134 624.645 742.475 654.276 762.328C790.509 853.082 905.198 896.318 1086.83 810.634C1118.79 795.671 1166.21 786.032 1223.28 780.843C1486.84 757.14 1959.42 811.409 2024.55 853.203" stroke="url(#paint28_linear_1596_3405)" stroke-width="0.3" stroke-miterlimit="10"/>
</g>
<g opacity="0.25">
<path d="M-2.3067 709.453C41.9352 625.545 200.441 580.737 345.086 612.533C416.43 628.219 489.946 657.16 552.941 702.105C586.255 725.868 617.966 747.411 647.822 765.942C785.147 851.176 897.415 882.546 1080.72 800.069C1113.2 785.454 1160.91 776.513 1218.23 772.274C1483.6 753.162 1962.7 802.849 2025.22 842.967" stroke="#6B48D2" stroke-width="0.35" stroke-miterlimit="10"/>
<path d="M-2.3067 709.453C41.9352 625.545 200.441 580.737 345.086 612.533C416.43 628.219 489.946 657.16 552.941 702.105C586.255 725.868 617.966 747.411 647.822 765.942C785.147 851.176 897.415 882.546 1080.72 800.069C1113.2 785.454 1160.91 776.513 1218.23 772.274C1483.6 753.162 1962.7 802.849 2025.22 842.967" stroke="url(#paint29_linear_1596_3405)" stroke-width="0.35" stroke-miterlimit="10"/>
</g>
<g opacity="0.28">
<path d="M-7.1404 709.321C33.2674 620.511 195.929 577.078 337.689 614.748C407.971 633.43 481.476 663.874 544.932 707.936C578.907 731.526 611.318 752.28 641.376 769.537C779.943 849.064 889.777 869.058 1074.63 789.484C1107.66 775.26 1155.62 766.974 1213.18 763.695C1480.36 749.164 1965.99 794.279 2025.9 832.731" stroke="#6B48D2" stroke-width="0.39" stroke-miterlimit="10"/>
<path d="M-7.1404 709.321C33.2674 620.511 195.929 577.078 337.689 614.748C407.971 633.43 481.476 663.874 544.932 707.936C578.907 731.526 611.318 752.28 641.376 769.537C779.943 849.064 889.777 869.058 1074.63 789.484C1107.66 775.26 1155.62 766.974 1213.18 763.695C1480.36 749.164 1965.99 794.279 2025.9 832.731" stroke="url(#paint30_linear_1596_3405)" stroke-width="0.39" stroke-miterlimit="10"/>
</g>
<g opacity="0.31">
<path d="M-11.9577 709.189C24.616 615.477 191.44 573.458 330.299 616.972C399.526 638.661 473.013 670.588 536.919 713.785C571.563 737.203 604.675 757.178 634.917 773.14C774.735 846.96 882.153 855.6 1068.52 778.898C1102.11 765.073 1150.32 757.423 1208.13 755.104C1477.12 745.156 1969.26 785.697 2026.57 822.474" stroke="#6B48D2" stroke-width="0.44" stroke-miterlimit="10"/>
<path d="M-11.9577 709.189C24.616 615.477 191.44 573.458 330.299 616.972C399.526 638.661 473.013 670.588 536.919 713.785C571.563 737.203 604.675 757.178 634.917 773.14C774.735 846.96 882.153 855.6 1068.52 778.898C1102.11 765.073 1150.32 757.423 1208.13 755.104C1477.12 745.156 1969.26 785.697 2026.57 822.474" stroke="url(#paint31_linear_1596_3405)" stroke-width="0.44" stroke-miterlimit="10"/>
</g>
<g opacity="0.35">
<path d="M-16.7782 709.058C15.9613 610.444 186.964 569.89 322.896 619.186C391.077 643.922 464.557 677.284 528.903 719.626C564.218 742.862 598.04 762.058 628.464 776.744C769.563 844.849 874.553 842.174 1062.42 768.323C1096.55 754.908 1145.02 747.894 1203.08 746.525C1473.88 741.168 1972.55 777.117 2027.25 812.228" stroke="#6B48D2" stroke-width="0.49" stroke-miterlimit="10"/>
<path d="M-16.7782 709.058C15.9613 610.444 186.964 569.89 322.896 619.186C391.077 643.922 464.557 677.284 528.903 719.626C564.218 742.862 598.04 762.058 628.464 776.744C769.563 844.849 874.553 842.174 1062.42 768.323C1096.55 754.908 1145.02 747.894 1203.08 746.525C1473.88 741.168 1972.55 777.117 2027.25 812.228" stroke="url(#paint32_linear_1596_3405)" stroke-width="0.49" stroke-miterlimit="10"/>
</g>
<g opacity="0.38">
<path d="M-21.6062 708.926C7.2999 605.4 182.498 566.362 315.495 621.411C382.639 649.204 456.114 683.98 520.889 725.476C556.884 748.53 591.407 766.937 622.014 780.348C764.404 842.73 866.965 828.758 1056.32 757.747C1091.02 744.734 1139.72 738.236 1198.03 737.946C1470.63 736.579 1975.82 768.546 2027.93 801.982" stroke="#6B48D2" stroke-width="0.54" stroke-miterlimit="10"/>
<path d="M-21.6062 708.926C7.2999 605.4 182.498 566.362 315.495 621.411C382.639 649.204 456.114 683.98 520.889 725.476C556.884 748.53 591.407 766.937 622.014 780.348C764.404 842.73 866.965 828.758 1056.32 757.747C1091.02 744.734 1139.72 738.236 1198.03 737.946C1470.63 736.579 1975.82 768.546 2027.93 801.982" stroke="url(#paint33_linear_1596_3405)" stroke-width="0.54" stroke-miterlimit="10"/>
</g>
<g opacity="0.41">
<path d="M-26.4309 708.795C-1.35897 600.368 178.031 562.893 308.097 623.627C374.203 654.496 447.675 690.659 512.88 731.307C549.556 754.171 584.778 771.808 615.567 783.944C759.27 840.593 859.398 815.375 1050.23 747.154C1085.48 734.551 1134.44 728.669 1193 729.349C1467.43 732.506 1979.13 759.959 2028.62 791.728" stroke="#6B48D2" stroke-width="0.59" stroke-miterlimit="10"/>
<path d="M-26.4309 708.795C-1.35897 600.368 178.031 562.893 308.097 623.627C374.203 654.496 447.675 690.659 512.88 731.307C549.556 754.171 584.778 771.808 615.567 783.944C759.27 840.593 859.398 815.375 1050.23 747.154C1085.48 734.551 1134.44 728.669 1193 729.349C1467.43 732.506 1979.13 759.959 2028.62 791.728" stroke="url(#paint34_linear_1596_3405)" stroke-width="0.59" stroke-miterlimit="10"/>
</g>
<g opacity="0.44">
<path d="M-31.2505 708.663C-10.0126 595.334 173.557 559.462 300.694 625.85C365.77 659.826 439.241 697.335 504.864 737.156C542.221 759.829 578.144 776.687 609.105 787.556C754.13 838.455 851.834 802.019 1044.12 736.587C1079.93 724.403 1129.13 719.138 1187.93 720.777C1464.18 728.468 1982.39 751.396 2029.27 781.489" stroke="#6B48D2" stroke-width="0.63" stroke-miterlimit="10"/>
<path d="M-31.2505 708.663C-10.0126 595.334 173.557 559.462 300.694 625.85C365.77 659.826 439.241 697.335 504.864 737.156C542.221 759.829 578.144 776.687 609.105 787.556C754.13 838.455 851.834 802.019 1044.12 736.587C1079.93 724.403 1129.13 719.138 1187.93 720.777C1464.18 728.468 1982.39 751.396 2029.27 781.489" stroke="url(#paint35_linear_1596_3405)" stroke-width="0.63" stroke-miterlimit="10"/>
</g>
<g opacity="0.47">
<path d="M-36.0797 708.541C-18.6746 590.29 169.08 556.08 293.293 628.065C357.326 665.176 430.81 703.993 496.851 742.997C534.899 765.469 571.521 781.548 602.654 791.15C749.024 836.28 844.28 788.674 1038.02 725.993C1074.4 714.229 1123.84 709.58 1182.89 712.179C1460.97 724.413 1985.68 742.807 2029.97 771.225" stroke="#6B48D2" stroke-width="0.68" stroke-miterlimit="10"/>
<path d="M-36.0797 708.541C-18.6746 590.29 169.08 556.08 293.293 628.065C357.326 665.176 430.81 703.993 496.851 742.997C534.899 765.469 571.521 781.548 602.654 791.15C749.024 836.28 844.28 788.674 1038.02 725.993C1074.4 714.229 1123.84 709.58 1182.89 712.179C1460.97 724.413 1985.68 742.807 2029.97 771.225" stroke="url(#paint36_linear_1596_3405)" stroke-width="0.68" stroke-miterlimit="10"/>
</g>
<g opacity="0.5">
<path d="M-40.8917 708.41C-27.3208 585.257 164.587 552.747 285.898 630.289C348.878 670.546 422.395 710.652 488.843 748.847C527.582 771.12 564.904 786.429 596.209 794.765C743.934 834.106 836.749 775.371 1031.93 715.428C1068.87 704.085 1118.55 700.05 1177.85 703.61C1457.75 720.397 1988.97 734.247 2030.65 760.989" stroke="#6B48D2" stroke-width="0.73" stroke-miterlimit="10"/>
<path d="M-40.8917 708.41C-27.3208 585.257 164.587 552.747 285.898 630.289C348.878 670.546 422.395 710.652 488.843 748.847C527.582 771.12 564.904 786.429 596.209 794.765C743.934 834.106 836.749 775.371 1031.93 715.428C1068.87 704.085 1118.55 700.05 1177.85 703.61C1457.75 720.397 1988.97 734.247 2030.65 760.989" stroke="url(#paint37_linear_1596_3405)" stroke-width="0.73" stroke-miterlimit="10"/>
</g>
<g opacity="0.53">
<path d="M-45.7256 708.278C-35.9888 580.223 160.07 549.461 278.491 632.513C340.416 675.943 413.978 717.301 480.814 754.686C520.245 776.749 558.267 791.278 589.734 798.357C738.815 831.891 829.197 762.065 1025.8 704.841C1063.31 693.919 1113.22 690.499 1172.78 695.019C1454.5 716.378 1992.23 725.656 2031.31 750.742" stroke="#6B48D2" stroke-width="0.78" stroke-miterlimit="10"/>
<path d="M-45.7256 708.278C-35.9888 580.223 160.07 549.461 278.491 632.513C340.416 675.943 413.978 717.301 480.814 754.686C520.245 776.749 558.267 791.278 589.734 798.357C738.815 831.891 829.197 762.065 1025.8 704.841C1063.31 693.919 1113.22 690.499 1172.78 695.019C1454.5 716.378 1992.23 725.656 2031.31 750.742" stroke="url(#paint38_linear_1596_3405)" stroke-width="0.78" stroke-miterlimit="10"/>
</g>
<g opacity="0.56">
<path d="M-50.5502 708.146C-44.6476 575.19 155.54 546.203 271.093 634.728C331.943 681.351 405.572 723.931 472.803 760.527C512.938 782.371 551.649 796.139 583.287 801.962C733.745 829.669 821.671 748.801 1019.71 694.256C1057.78 683.775 1107.94 680.961 1167.74 686.43C1451.28 712.362 1995.52 717.076 2031.99 740.486" stroke="#6B48D2" stroke-width="0.83" stroke-miterlimit="10"/>
<path d="M-50.5502 708.146C-44.6476 575.19 155.54 546.203 271.093 634.728C331.943 681.351 405.572 723.931 472.803 760.527C512.938 782.371 551.649 796.139 583.287 801.962C733.745 829.669 821.671 748.801 1019.71 694.256C1057.78 683.775 1107.94 680.961 1167.74 686.43C1451.28 712.362 1995.52 717.076 2031.99 740.486" stroke="url(#paint39_linear_1596_3405)" stroke-width="0.83" stroke-miterlimit="10"/>
</g>
<g opacity="0.59">
<path d="M-55.3654 708.016C-53.2961 570.147 150.978 542.974 263.695 636.953C323.468 686.787 397.175 730.563 464.793 766.378C505.629 788.002 545.04 800.992 576.839 805.576C728.676 827.429 814.163 735.568 1013.62 683.692C1052.26 673.641 1102.65 671.442 1162.69 677.861C1448.05 708.386 1998.81 708.516 2032.67 730.25" stroke="#6B48D2" stroke-width="0.87" stroke-miterlimit="10"/>
<path d="M-55.3654 708.016C-53.2961 570.147 150.978 542.974 263.695 636.953C323.468 686.787 397.175 730.563 464.793 766.378C505.629 788.002 545.04 800.992 576.839 805.576C728.676 827.429 814.163 735.568 1013.62 683.692C1052.26 673.641 1102.65 671.442 1162.69 677.861C1448.05 708.386 1998.81 708.516 2032.67 730.25" stroke="url(#paint40_linear_1596_3405)" stroke-width="0.87" stroke-miterlimit="10"/>
</g>
<g opacity="0.63">
<path d="M-60.1998 707.884C-61.9647 565.113 146.376 539.771 256.288 639.167C314.954 692.221 388.77 737.173 456.773 772.217C498.312 793.623 538.413 805.842 570.372 809.17C723.59 825.147 806.635 722.333 1007.5 673.105C1046.71 663.495 1097.34 661.902 1157.63 669.271C1444.81 704.387 2002.08 699.935 2033.34 719.994" stroke="#6B48D2" stroke-width="0.92" stroke-miterlimit="10"/>
<path d="M-60.1998 707.884C-61.9647 565.113 146.376 539.771 256.288 639.167C314.954 692.221 388.77 737.173 456.773 772.217C498.312 793.623 538.413 805.842 570.372 809.17C723.59 825.147 806.635 722.333 1007.5 673.105C1046.71 663.495 1097.34 661.902 1157.63 669.271C1444.81 704.387 2002.08 699.935 2033.34 719.994" stroke="url(#paint41_linear_1596_3405)" stroke-width="0.92" stroke-miterlimit="10"/>
</g>
<g opacity="0.66">
<path d="M-65.0243 707.752C-70.6233 560.079 141.752 536.595 248.89 641.391C306.438 697.684 380.375 743.784 448.763 778.058C491.005 799.234 531.763 811.32 563.925 812.774C718.7 819.742 799.125 709.129 1001.41 662.521C1041.19 653.351 1092.05 652.363 1152.59 660.682C1441.59 700.4 2005.36 691.355 2034.01 709.748" stroke="#6B48D2" stroke-width="0.97" stroke-miterlimit="10"/>
<path d="M-65.0243 707.752C-70.6233 560.079 141.752 536.595 248.89 641.391C306.438 697.684 380.375 743.784 448.763 778.058C491.005 799.234 531.763 811.32 563.925 812.774C718.7 819.742 799.125 709.129 1001.41 662.521C1041.19 653.351 1092.05 652.363 1152.59 660.682C1441.59 700.4 2005.36 691.355 2034.01 709.748" stroke="url(#paint42_linear_1596_3405)" stroke-width="0.97" stroke-miterlimit="10"/>
</g>
<g opacity="0.69">
<path d="M-69.8384 707.621C-79.2716 555.046 137.099 533.438 241.494 643.606C297.904 703.136 371.992 750.376 440.744 783.898C483.699 804.836 525.18 815.515 557.47 816.368C713.453 820.526 791.614 695.935 995.309 651.936C1035.66 643.216 1086.75 642.823 1147.55 652.093C1438.36 696.433 2008.65 682.775 2034.69 699.492" stroke="#6B48D2" stroke-width="1.02" stroke-miterlimit="10"/>
<path d="M-69.8384 707.621C-79.2716 555.046 137.099 533.438 241.494 643.606C297.904 703.136 371.992 750.376 440.744 783.898C483.699 804.836 525.18 815.515 557.47 816.368C713.453 820.526 791.614 695.935 995.309 651.936C1035.66 643.216 1086.75 642.823 1147.55 652.093C1438.36 696.433 2008.65 682.775 2034.69 699.492" stroke="url(#paint43_linear_1596_3405)" stroke-width="1.02" stroke-miterlimit="10"/>
</g>
<g opacity="0.72">
<path d="M-74.6641 707.489C-87.9307 550.003 132.412 530.298 234.095 645.831C289.357 708.616 363.606 756.978 432.732 789.748C476.392 810.448 518.562 820.346 551.011 819.981C708.369 818.196 784.11 682.78 989.196 641.369C1030.12 633.101 1081.44 633.312 1142.48 643.522C1435.11 692.484 2011.92 674.214 2035.36 689.255" stroke="#6B48D2" stroke-width="1.07" stroke-miterlimit="10"/>
<path d="M-74.6641 707.489C-87.9307 550.003 132.412 530.298 234.095 645.831C289.357 708.616 363.606 756.978 432.732 789.748C476.392 810.448 518.562 820.346 551.011 819.981C708.369 818.196 784.11 682.78 989.196 641.369C1030.12 633.101 1081.44 633.312 1142.48 643.522C1435.11 692.484 2011.92 674.214 2035.36 689.255" stroke="url(#paint44_linear_1596_3405)" stroke-width="1.07" stroke-miterlimit="10"/>
</g>
<g opacity="0.75">
<path d="M-79.4947 707.357C-96.5954 544.969 127.692 527.156 226.691 648.045C280.775 714.095 355.217 763.56 424.716 795.588C469.09 816.04 511.94 825.177 544.558 823.585C703.283 815.825 776.599 669.635 983.099 630.784C1024.6 622.976 1076.15 623.783 1137.44 634.933C1431.88 688.526 2015.21 665.624 2036.04 679" stroke="#6B48D2" stroke-width="1.12" stroke-miterlimit="10"/>
<path d="M-79.4947 707.357C-96.5954 544.969 127.692 527.156 226.691 648.045C280.775 714.095 355.217 763.56 424.716 795.588C469.09 816.04 511.94 825.177 544.558 823.585C703.283 815.825 776.599 669.635 983.099 630.784C1024.6 622.976 1076.15 623.783 1137.44 634.933C1431.88 688.526 2015.21 665.624 2036.04 679" stroke="url(#paint45_linear_1596_3405)" stroke-width="1.12" stroke-miterlimit="10"/>
</g>
<g opacity="0.78">
<path d="M-84.3095 707.227C-105.244 539.937 122.938 524.022 219.293 650.271C272.189 719.574 346.834 770.134 416.706 801.429C461.794 821.624 505.324 830 538.112 827.181C698.195 813.437 769.104 656.502 977.008 620.201C1019.08 612.853 1070.86 614.255 1132.4 626.345C1428.65 684.578 2018.5 657.045 2036.73 668.746" stroke="#6B48D2" stroke-width="1.16" stroke-miterlimit="10"/>
<path d="M-84.3095 707.227C-105.244 539.937 122.938 524.022 219.293 650.271C272.189 719.574 346.834 770.134 416.706 801.429C461.794 821.624 505.324 830 538.112 827.181C698.195 813.437 769.104 656.502 977.008 620.201C1019.08 612.853 1070.86 614.255 1132.4 626.345C1428.65 684.578 2018.5 657.045 2036.73 668.746" stroke="url(#paint46_linear_1596_3405)" stroke-width="1.16" stroke-miterlimit="10"/>
</g>
<g opacity="0.81">
<path d="M-89.1361 707.095C-113.904 534.893 118.161 520.896 211.894 652.485C263.581 725.061 338.46 776.697 408.694 807.27C454.497 827.207 498.706 834.812 531.653 830.784C693.076 811.035 761.595 643.396 970.896 609.615C1013.53 602.737 1065.52 604.831 1127.34 617.756C1425.28 681.182 2021.77 648.464 2037.4 658.499" stroke="#6B48D2" stroke-width="1.21" stroke-miterlimit="10"/>
<path d="M-89.1361 707.095C-113.904 534.893 118.161 520.896 211.894 652.485C263.581 725.061 338.46 776.697 408.694 807.27C454.497 827.207 498.706 834.812 531.653 830.784C693.076 811.035 761.595 643.396 970.896 609.615C1013.53 602.737 1065.52 604.831 1127.34 617.756C1425.28 681.182 2021.77 648.464 2037.4 658.499" stroke="url(#paint47_linear_1596_3405)" stroke-width="1.21" stroke-miterlimit="10"/>
</g>
<g opacity="0.84">
<path d="M-93.966 706.972C-122.558 529.859 113.344 517.757 204.492 654.709C254.961 730.545 330.074 783.259 400.679 813.119C447.207 832.789 492.076 839.632 525.201 834.387C687.965 808.613 754.083 630.309 964.8 599.039C1008.02 592.632 1060.23 595.301 1122.29 609.176C1422.05 677.183 2025.05 639.893 2038.07 648.252" stroke="#6B48D2" stroke-width="1.26" stroke-miterlimit="10"/>
<path d="M-93.966 706.972C-122.558 529.859 113.344 517.757 204.492 654.709C254.961 730.545 330.074 783.259 400.679 813.119C447.207 832.789 492.076 839.632 525.201 834.387C687.965 808.613 754.083 630.309 964.8 599.039C1008.02 592.632 1060.23 595.301 1122.29 609.176C1422.05 677.183 2025.05 639.893 2038.07 648.252" stroke="url(#paint48_linear_1596_3405)" stroke-width="1.26" stroke-miterlimit="10"/>
</g>
<g opacity="0.88">
<path d="M-98.7798 706.842C-131.216 524.826 108.522 514.618 197.095 656.924C246.328 736.021 321.703 789.813 392.66 818.959C439.904 838.362 485.442 844.443 518.745 837.992C682.822 806.171 746.575 617.233 958.7 588.464C1002.49 582.527 1054.93 585.772 1117.24 600.596C1418.8 673.186 2028.33 631.323 2038.75 638.006" stroke="#6B48D2" stroke-width="1.31" stroke-miterlimit="10"/>
<path d="M-98.7798 706.842C-131.216 524.826 108.522 514.618 197.095 656.924C246.328 736.021 321.703 789.813 392.66 818.959C439.904 838.362 485.442 844.443 518.745 837.992C682.822 806.171 746.575 617.233 958.7 588.464C1002.49 582.527 1054.93 585.772 1117.24 600.596C1418.8 673.186 2028.33 631.323 2038.75 638.006" stroke="url(#paint49_linear_1596_3405)" stroke-width="1.31" stroke-miterlimit="10"/>
</g>
<g opacity="0.91">
<path d="M-103.611 706.71C-139.881 519.792 103.654 511.476 189.691 659.148C237.676 741.505 313.316 796.356 384.643 824.799C432.613 843.926 478.801 849.254 512.282 841.595C677.662 803.727 739.048 604.175 952.583 577.878C996.937 572.411 1049.61 576.221 1112.18 592.006C1415.56 669.187 2031.6 622.742 2039.42 627.75" stroke="#6B48D2" stroke-width="1.36" stroke-miterlimit="10"/>
<path d="M-103.611 706.71C-139.881 519.792 103.654 511.476 189.691 659.148C237.676 741.505 313.316 796.356 384.643 824.799C432.613 843.926 478.801 849.254 512.282 841.595C677.662 803.727 739.048 604.175 952.583 577.878C996.937 572.411 1049.61 576.221 1112.18 592.006C1415.56 669.187 2031.6 622.742 2039.42 627.75" stroke="url(#paint50_linear_1596_3405)" stroke-width="1.36" stroke-miterlimit="10"/>
</g>
<g opacity="0.94">
<path d="M-108.428 706.579C-148.531 514.75 98.7806 508.324 182.292 661.363C229.01 746.978 304.943 802.891 376.631 830.64C425.318 849.49 472.174 854.066 505.833 845.19C672.508 801.254 731.545 591.129 946.49 567.294C991.411 562.317 1044.33 566.683 1107.14 583.427C1412.32 665.19 2034.89 614.163 2040.1 617.514" stroke="#6B48D2" stroke-width="1.4" stroke-miterlimit="10"/>
<path d="M-108.428 706.579C-148.531 514.75 98.7806 508.324 182.292 661.363C229.01 746.978 304.943 802.891 376.631 830.64C425.318 849.49 472.174 854.066 505.833 845.19C672.508 801.254 731.545 591.129 946.49 567.294C991.411 562.317 1044.33 566.683 1107.14 583.427C1412.32 665.19 2034.89 614.163 2040.1 617.514" stroke="url(#paint51_linear_1596_3405)" stroke-width="1.4" stroke-miterlimit="10"/>
</g>
<g opacity="0.97">
<path d="M-113.258 706.447C-157.195 509.716 93.6009 505.299 174.888 663.588C220.178 752.538 296.604 809.329 368.615 836.49C418.053 854.976 465.517 858.835 499.38 848.803C667.265 798.589 724.041 578.348 940.392 556.729C985.888 552.281 1039.02 557.163 1102.1 574.858C1409.09 661.212 2038.18 605.603 2040.78 607.278" stroke="#6B48D2" stroke-width="1.45" stroke-miterlimit="10"/>
<path d="M-113.258 706.447C-157.195 509.716 93.6009 505.299 174.888 663.588C220.178 752.538 296.604 809.329 368.615 836.49C418.053 854.976 465.517 858.835 499.38 848.803C667.265 798.589 724.041 578.348 940.392 556.729C985.888 552.281 1039.02 557.163 1102.1 574.858C1409.09 661.212 2038.18 605.603 2040.78 607.278" stroke="url(#paint52_linear_1596_3405)" stroke-width="1.45" stroke-miterlimit="10"/>
</g>
<path d="M-118.08 706.315C-165.852 504.682 88.9685 501.985 167.493 665.802C242.225 821.702 409.734 879.972 492.926 852.397C697.915 784.452 734.357 459.452 1097.05 566.259C1405.84 657.194 2041.46 597.012 2041.46 597.012" stroke="#6B48D2" stroke-width="1.5" stroke-miterlimit="10"/>
<path d="M-118.08 706.315C-165.852 504.682 88.9685 501.985 167.493 665.802C242.225 821.702 409.734 879.972 492.926 852.397C697.915 784.452 734.357 459.452 1097.05 566.259C1405.84 657.194 2041.46 597.012 2041.46 597.012" stroke="url(#paint53_linear_1596_3405)" stroke-width="1.5" stroke-miterlimit="10"/>
</g>
<defs>
<linearGradient id="paint0_linear_1596_3405" x1="1606.63" y1="1036.92" x2="83.398" y2="1772.79" gradientUnits="userSpaceOnUse">
<stop stop-color="#601BCE"/>
<stop offset="1" stop-color="#39C8C5"/>
</linearGradient>
<linearGradient id="paint1_linear_1596_3405" x1="1607.66" y1="1039" x2="81.9594" y2="1775.34" gradientUnits="userSpaceOnUse">
<stop stop-color="#601BCE"/>
<stop offset="1" stop-color="#39C8C5"/>
</linearGradient>
<linearGradient id="paint2_linear_1596_3405" x1="1608.57" y1="1040.8" x2="80.3706" y2="1777.6" gradientUnits="userSpaceOnUse">
<stop stop-color="#601BCE"/>
<stop offset="1" stop-color="#39C8C5"/>
</linearGradient>
<linearGradient id="paint3_linear_1596_3405" x1="1609.32" y1="1042.3" x2="78.6207" y2="1779.51" gradientUnits="userSpaceOnUse">
<stop stop-color="#601BCE"/>
<stop offset="1" stop-color="#39C8C5"/>
</linearGradient>
<linearGradient id="paint4_linear_1596_3405" x1="1609.88" y1="1043.42" x2="76.6691" y2="1781.04" gradientUnits="userSpaceOnUse">
<stop stop-color="#601BCE"/>
<stop offset="1" stop-color="#39C8C5"/>
</linearGradient>
<linearGradient id="paint5_linear_1596_3405" x1="1610.23" y1="1044.11" x2="74.5012" y2="1782.11" gradientUnits="userSpaceOnUse">
<stop stop-color="#601BCE"/>
<stop offset="1" stop-color="#39C8C5"/>
</linearGradient>
<linearGradient id="paint6_linear_1596_3405" x1="1610.32" y1="1044.28" x2="72.0713" y2="1782.66" gradientUnits="userSpaceOnUse">
<stop stop-color="#601BCE"/>
<stop offset="1" stop-color="#39C8C5"/>
</linearGradient>
<linearGradient id="paint7_linear_1596_3405" x1="1610.16" y1="1043.93" x2="69.3804" y2="1782.69" gradientUnits="userSpaceOnUse">
<stop stop-color="#601BCE"/>
<stop offset="1" stop-color="#39C8C5"/>
</linearGradient>
<linearGradient id="paint8_linear_1596_3405" x1="1609.62" y1="1042.86" x2="66.3497" y2="1782.02" gradientUnits="userSpaceOnUse">
<stop stop-color="#601BCE"/>
<stop offset="1" stop-color="#39C8C5"/>
</linearGradient>
<linearGradient id="paint9_linear_1596_3405" x1="1608.72" y1="1041.01" x2="62.9573" y2="1780.64" gradientUnits="userSpaceOnUse">
<stop stop-color="#601BCE"/>
<stop offset="1" stop-color="#39C8C5"/>
</linearGradient>
<linearGradient id="paint10_linear_1596_3405" x1="1607.4" y1="1038.38" x2="59.1882" y2="1778.52" gradientUnits="userSpaceOnUse">
<stop stop-color="#601BCE"/>
<stop offset="1" stop-color="#39C8C5"/>
</linearGradient>
<linearGradient id="paint11_linear_1596_3405" x1="1605.68" y1="1034.92" x2="55.0553" y2="1775.66" gradientUnits="userSpaceOnUse">
<stop stop-color="#601BCE"/>
<stop offset="1" stop-color="#39C8C5"/>
</linearGradient>
<linearGradient id="paint12_linear_1596_3405" x1="1603.55" y1="1030.64" x2="50.5597" y2="1772.07" gradientUnits="userSpaceOnUse">
<stop stop-color="#601BCE"/>
<stop offset="1" stop-color="#39C8C5"/>
</linearGradient>
<linearGradient id="paint13_linear_1596_3405" x1="1601.06" y1="1025.6" x2="45.7251" y2="1767.82" gradientUnits="userSpaceOnUse">
<stop stop-color="#601BCE"/>
<stop offset="1" stop-color="#39C8C5"/>
</linearGradient>
<linearGradient id="paint14_linear_1596_3405" x1="1598.23" y1="1019.89" x2="40.5911" y2="1762.99" gradientUnits="userSpaceOnUse">
<stop stop-color="#601BCE"/>
<stop offset="1" stop-color="#39C8C5"/>
</linearGradient>
<linearGradient id="paint15_linear_1596_3405" x1="1595.1" y1="1013.59" x2="35.1002" y2="1757.71" gradientUnits="userSpaceOnUse">
<stop stop-color="#601BCE"/>
<stop offset="1" stop-color="#39C8C5"/>
</linearGradient>
<linearGradient id="paint16_linear_1596_3405" x1="1591.73" y1="1006.81" x2="29.2869" y2="1752.07" gradientUnits="userSpaceOnUse">
<stop stop-color="#601BCE"/>
<stop offset="1" stop-color="#39C8C5"/>
</linearGradient>
<linearGradient id="paint17_linear_1596_3405" x1="1588.15" y1="999.636" x2="23.1924" y2="1746.14" gradientUnits="userSpaceOnUse">
<stop stop-color="#601BCE"/>
<stop offset="1" stop-color="#39C8C5"/>
</linearGradient>
<linearGradient id="paint18_linear_1596_3405" x1="1584.42" y1="992.144" x2="16.8704" y2="1740" gradientUnits="userSpaceOnUse">
<stop stop-color="#601BCE"/>
<stop offset="1" stop-color="#39C8C5"/>
</linearGradient>
<linearGradient id="paint19_linear_1596_3405" x1="1580.59" y1="984.37" x2="10.357" y2="1733.66" gradientUnits="userSpaceOnUse">
<stop stop-color="#601BCE"/>
<stop offset="1" stop-color="#39C8C5"/>
</linearGradient>
<linearGradient id="paint20_linear_1596_3405" x1="1576.62" y1="976.4" x2="3.66816" y2="1727.19" gradientUnits="userSpaceOnUse">
<stop stop-color="#601BCE"/>
<stop offset="1" stop-color="#39C8C5"/>
</linearGradient>
<linearGradient id="paint21_linear_1596_3405" x1="1576.91" y1="976.99" x2="1.63558" y2="1730.34" gradientUnits="userSpaceOnUse">
<stop stop-color="#601BCE"/>
<stop offset="1" stop-color="#39C8C5"/>
</linearGradient>
<linearGradient id="paint22_linear_1596_3405" x1="1578.61" y1="980.392" x2="1.0354" y2="1736.55" gradientUnits="userSpaceOnUse">
<stop stop-color="#601BCE"/>
<stop offset="1" stop-color="#39C8C5"/>
</linearGradient>
<linearGradient id="paint23_linear_1596_3405" x1="1580.26" y1="983.689" x2="0.264894" y2="1742.55" gradientUnits="userSpaceOnUse">
<stop stop-color="#601BCE"/>
<stop offset="1" stop-color="#39C8C5"/>
</linearGradient>
<linearGradient id="paint24_linear_1596_3405" x1="1581.88" y1="986.916" x2="-0.64627" y2="1748.39" gradientUnits="userSpaceOnUse">
<stop stop-color="#601BCE"/>
<stop offset="1" stop-color="#39C8C5"/>
</linearGradient>
<linearGradient id="paint25_linear_1596_3405" x1="1583.46" y1="990.076" x2="-1.69433" y2="1754.09" gradientUnits="userSpaceOnUse">
<stop stop-color="#601BCE"/>
<stop offset="1" stop-color="#39C8C5"/>
</linearGradient>
<linearGradient id="paint26_linear_1596_3405" x1="1585.01" y1="993.179" x2="-2.86186" y2="1759.66" gradientUnits="userSpaceOnUse">
<stop stop-color="#601BCE"/>
<stop offset="1" stop-color="#39C8C5"/>
</linearGradient>
<linearGradient id="paint27_linear_1596_3405" x1="3.81284" y1="702.759" x2="2032.39" y2="758.313" gradientUnits="userSpaceOnUse">
<stop stop-color="#39C8C5"/>
<stop offset="1" stop-color="#601BCE"/>
</linearGradient>
<linearGradient id="paint28_linear_1596_3405" x1="-0.758071" y1="698.765" x2="2032.6" y2="750.994" gradientUnits="userSpaceOnUse">
<stop stop-color="#39C8C5"/>
<stop offset="1" stop-color="#601BCE"/>
</linearGradient>
<linearGradient id="paint29_linear_1596_3405" x1="-5.33109" y1="694.739" x2="2032.8" y2="743.721" gradientUnits="userSpaceOnUse">
<stop stop-color="#39C8C5"/>
<stop offset="1" stop-color="#601BCE"/>
</linearGradient>
<linearGradient id="paint30_linear_1596_3405" x1="-9.92676" y1="690.855" x2="2033" y2="736.789" gradientUnits="userSpaceOnUse">
<stop stop-color="#39C8C5"/>
<stop offset="1" stop-color="#601BCE"/>
</linearGradient>
<linearGradient id="paint31_linear_1596_3405" x1="-14.5218" y1="687.212" x2="2033.17" y2="730.379" gradientUnits="userSpaceOnUse">
<stop stop-color="#39C8C5"/>
<stop offset="1" stop-color="#601BCE"/>
</linearGradient>
<linearGradient id="paint32_linear_1596_3405" x1="-19.1421" y1="683.903" x2="2033.32" y2="724.698" gradientUnits="userSpaceOnUse">
<stop stop-color="#39C8C5"/>
<stop offset="1" stop-color="#601BCE"/>
</linearGradient>
<linearGradient id="paint33_linear_1596_3405" x1="-23.7978" y1="681.015" x2="2033.46" y2="719.944" gradientUnits="userSpaceOnUse">
<stop stop-color="#39C8C5"/>
<stop offset="1" stop-color="#601BCE"/>
</linearGradient>
<linearGradient id="paint34_linear_1596_3405" x1="-28.4825" y1="678.618" x2="2033.58" y2="716.286" gradientUnits="userSpaceOnUse">
<stop stop-color="#39C8C5"/>
<stop offset="1" stop-color="#601BCE"/>
</linearGradient>
<linearGradient id="paint35_linear_1596_3405" x1="-33.1973" y1="676.756" x2="2033.66" y2="713.837" gradientUnits="userSpaceOnUse">
<stop stop-color="#39C8C5"/>
<stop offset="1" stop-color="#601BCE"/>
</linearGradient>
<linearGradient id="paint36_linear_1596_3405" x1="-37.9553" y1="675.41" x2="2033.76" y2="712.563" gradientUnits="userSpaceOnUse">
<stop stop-color="#39C8C5"/>
<stop offset="1" stop-color="#601BCE"/>
</linearGradient>
<linearGradient id="paint37_linear_1596_3405" x1="-42.7306" y1="674.578" x2="2033.83" y2="712.432" gradientUnits="userSpaceOnUse">
<stop stop-color="#39C8C5"/>
<stop offset="1" stop-color="#601BCE"/>
</linearGradient>
<linearGradient id="paint38_linear_1596_3405" x1="-47.557" y1="674.19" x2="2033.87" y2="713.268" gradientUnits="userSpaceOnUse">
<stop stop-color="#39C8C5"/>
<stop offset="1" stop-color="#601BCE"/>
</linearGradient>
<linearGradient id="paint39_linear_1596_3405" x1="-52.4316" y1="674.203" x2="2033.91" y2="714.95" gradientUnits="userSpaceOnUse">
<stop stop-color="#39C8C5"/>
<stop offset="1" stop-color="#601BCE"/>
</linearGradient>
<linearGradient id="paint40_linear_1596_3405" x1="-57.4359" y1="674.558" x2="2033.93" y2="717.311" gradientUnits="userSpaceOnUse">
<stop stop-color="#39C8C5"/>
<stop offset="1" stop-color="#601BCE"/>
</linearGradient>
<linearGradient id="paint41_linear_1596_3405" x1="-62.5886" y1="675.191" x2="2033.92" y2="720.183" gradientUnits="userSpaceOnUse">
<stop stop-color="#39C8C5"/>
<stop offset="1" stop-color="#601BCE"/>
</linearGradient>
<linearGradient id="paint42_linear_1596_3405" x1="-67.8494" y1="676.096" x2="2033.91" y2="723.51" gradientUnits="userSpaceOnUse">
<stop stop-color="#39C8C5"/>
<stop offset="1" stop-color="#601BCE"/>
</linearGradient>
<linearGradient id="paint43_linear_1596_3405" x1="-73.0002" y1="674.117" x2="2034.13" y2="726.65" gradientUnits="userSpaceOnUse">
<stop stop-color="#39C8C5"/>
<stop offset="1" stop-color="#601BCE"/>
</linearGradient>
<linearGradient id="paint44_linear_1596_3405" x1="-78.2146" y1="671.674" x2="2034.35" y2="729.371" gradientUnits="userSpaceOnUse">
<stop stop-color="#39C8C5"/>
<stop offset="1" stop-color="#601BCE"/>
</linearGradient>
<linearGradient id="paint45_linear_1596_3405" x1="-83.5115" y1="669.256" x2="2034.55" y2="731.674" gradientUnits="userSpaceOnUse">
<stop stop-color="#39C8C5"/>
<stop offset="1" stop-color="#601BCE"/>
</linearGradient>
<linearGradient id="paint46_linear_1596_3405" x1="-88.8647" y1="666.872" x2="2034.73" y2="733.604" gradientUnits="userSpaceOnUse">
<stop stop-color="#39C8C5"/>
<stop offset="1" stop-color="#601BCE"/>
</linearGradient>
<linearGradient id="paint47_linear_1596_3405" x1="-94.2962" y1="664.525" x2="2034.88" y2="735.208" gradientUnits="userSpaceOnUse">
<stop stop-color="#39C8C5"/>
<stop offset="1" stop-color="#601BCE"/>
</linearGradient>
<linearGradient id="paint48_linear_1596_3405" x1="-99.7903" y1="662.207" x2="2035.02" y2="736.523" gradientUnits="userSpaceOnUse">
<stop stop-color="#39C8C5"/>
<stop offset="1" stop-color="#601BCE"/>
</linearGradient>
<linearGradient id="paint49_linear_1596_3405" x1="-105.33" y1="659.913" x2="2035.15" y2="737.578" gradientUnits="userSpaceOnUse">
<stop stop-color="#39C8C5"/>
<stop offset="1" stop-color="#601BCE"/>
</linearGradient>
<linearGradient id="paint50_linear_1596_3405" x1="-110.937" y1="657.637" x2="2035.26" y2="738.399" gradientUnits="userSpaceOnUse">
<stop stop-color="#39C8C5"/>
<stop offset="1" stop-color="#601BCE"/>
</linearGradient>
<linearGradient id="paint51_linear_1596_3405" x1="-116.581" y1="655.393" x2="2035.38" y2="739.023" gradientUnits="userSpaceOnUse">
<stop stop-color="#39C8C5"/>
<stop offset="1" stop-color="#601BCE"/>
</linearGradient>
<linearGradient id="paint52_linear_1596_3405" x1="-122.29" y1="653.147" x2="2035.5" y2="739.44" gradientUnits="userSpaceOnUse">
<stop stop-color="#39C8C5"/>
<stop offset="1" stop-color="#601BCE"/>
</linearGradient>
<linearGradient id="paint53_linear_1596_3405" x1="-128.021" y1="650.946" x2="2035.6" y2="739.738" gradientUnits="userSpaceOnUse">
<stop stop-color="#39C8C5"/>
<stop offset="1" stop-color="#601BCE"/>
</linearGradient>
<clipPath id="clip0_1596_3405">
<rect width="1400" height="1815" fill="white"/>
</clipPath>
</defs>
</svg>
