<svg width="333" height="87" viewBox="0 0 333 87" fill="none" xmlns="http://www.w3.org/2000/svg">
<g clip-path="url(#clip0_3417_3629)">
<path d="M83.2578 1.82812H112.368V8.30813H101.008V49.2181H94.5378V8.30813H83.2578V1.82812Z" fill="white"/>
<path d="M2.86719 1.82812H14.3572C23.4672 1.82812 30.2472 4.22813 34.6772 9.03813C39.1172 13.8481 41.3472 19.3481 41.3472 25.5181C41.3472 31.6881 39.0472 37.2481 34.4672 42.0381C29.8672 46.8281 23.2072 49.2181 14.4372 49.2181H2.86719V1.82812ZM9.34719 8.14812V42.7381H9.71719C14.5172 42.7381 18.1272 42.5181 20.5472 42.0881C22.9772 41.6581 25.2672 40.7081 27.4472 39.2481C29.6272 37.7881 31.3572 35.8581 32.6372 33.4481C33.9172 31.0381 34.5672 28.3781 34.5672 25.4881C34.5672 21.8381 33.5372 18.5581 31.4972 15.6081C29.4372 12.6781 26.9872 10.6981 24.1272 9.67813C21.2672 8.65813 17.4372 8.15812 12.6072 8.15812H9.34719V8.14812Z" fill="white"/>
<path fill-rule="evenodd" clip-rule="evenodd" d="M182.057 1.82812H189.547C194.477 1.82812 198.487 2.90812 201.607 5.05813C204.717 7.20813 206.277 9.90812 206.277 13.1881C206.277 17.1881 204.017 20.5281 199.497 23.2081C206.557 25.5881 210.087 29.7081 210.087 35.5881C210.087 39.6781 208.247 42.9681 204.577 45.4681C200.897 47.9681 195.977 49.2281 189.807 49.2281H182.047V1.82812H182.057ZM188.537 7.53813V21.5581C192.077 21.5081 194.797 20.8181 196.677 19.5181C198.567 18.1981 199.507 16.3981 199.507 14.0781C199.507 12.0681 198.657 10.4681 196.957 9.26813C195.257 8.05813 192.977 7.46812 190.127 7.46812C189.517 7.46812 188.987 7.49813 188.537 7.54813V7.53813ZM188.537 27.1981V43.4281H189.047C194.557 43.4281 198.307 42.5381 200.307 40.7481C202.317 38.9581 203.317 37.1381 203.317 35.2781C203.317 32.8281 202.187 30.8581 199.937 29.3981C197.687 27.9381 194.617 27.1981 190.687 27.1981H188.527H188.537Z" fill="white"/>
<path fill-rule="evenodd" clip-rule="evenodd" d="M221.617 1.82812H247.897V8.30813H228.087V20.0381H247.897V26.5181H228.087V42.7481H247.897V49.2181H221.617V1.82812Z" fill="white"/>
<path fill-rule="evenodd" clip-rule="evenodd" d="M303.148 1.82812H332.258V8.30813H320.898V49.2181H314.428V8.30813H303.148V1.82812Z" fill="white"/>
<path fill-rule="evenodd" clip-rule="evenodd" d="M264.191 49.22H257.461L279.671 0L302.031 49.22H295.291L279.691 14.88C269.991 36.36 271.701 32.57 264.181 49.22" fill="white"/>
<path fill-rule="evenodd" clip-rule="evenodd" d="M118.191 49.22H111.461L133.671 0L156.031 49.22H149.291L133.691 14.88C123.991 36.36 125.701 32.57 118.181 49.22" fill="white"/>
<path fill-rule="evenodd" clip-rule="evenodd" d="M189.248 61.0169C180.658 60.9269 137.118 61.0169 123.078 60.9969C122.538 60.1969 121.628 59.6669 120.588 59.6669C118.928 59.6669 117.588 61.0069 117.588 62.6669C117.588 63.2969 117.778 63.8769 118.108 64.3569L112.318 75.2069C111.828 75.0669 111.308 74.9869 110.768 74.9869C110.168 74.9869 109.598 75.0869 109.058 75.2569L97.7078 57.3569C98.0378 56.8769 98.2278 56.2969 98.2278 55.6669C98.2278 54.0069 96.8878 52.6669 95.2278 52.6669C93.5678 52.6669 92.2278 54.0069 92.2278 55.6669C92.2278 55.6769 92.2278 55.6969 92.2278 55.7069L87.2878 58.0569C86.2978 56.5269 84.5778 55.5069 82.6178 55.5069C82.2478 55.5069 81.8878 55.5469 81.5378 55.6169L64.6478 10.8669C65.7178 9.85687 66.3778 8.42688 66.3778 6.84688C66.3778 3.77688 63.8878 1.29688 60.8278 1.29688C57.7678 1.29688 55.2778 3.78688 55.2778 6.84688C55.2778 8.66688 56.1578 10.2769 57.5078 11.2969C53.9078 19.7569 46.7178 36.6569 46.7178 36.6569C44.4878 41.9069 38.6178 55.7069 36.4378 60.7669C36.2078 61.3069 35.9878 61.8569 35.7678 62.4069C35.2278 62.2269 34.6478 62.1369 34.0478 62.1369C32.4178 62.1369 30.9578 62.8369 29.9478 63.9569L24.1378 58.1269C24.3478 57.7169 24.4778 57.2569 24.4778 56.7669C24.4778 55.1069 23.1378 53.7669 21.4778 53.7669C20.0178 53.7669 18.7978 54.8169 18.5278 56.2069L0.0078125 56.6069L18.4878 57.0069C18.6078 58.5569 19.8878 59.7769 21.4678 59.7769C22.2378 59.7769 22.9378 59.4769 23.4778 58.9969C24.9878 60.6569 26.5078 62.3269 29.1078 65.1769C28.7178 65.9369 28.4978 66.7869 28.4978 67.6969C28.4978 70.7669 30.9878 73.2469 34.0478 73.2469C37.1078 73.2469 39.5978 70.7569 39.5978 67.6969C39.5978 65.9369 38.7778 64.3769 37.5078 63.3569C41.1878 54.9469 45.4578 44.8069 48.5578 37.4569L59.2978 12.2069C59.7878 12.3469 60.2978 12.4269 60.8278 12.4269C61.5678 12.4269 62.2778 12.2769 62.9278 12.0169L79.6778 56.3969C78.1078 57.3769 77.0678 59.1169 77.0678 61.1069C77.0678 64.1769 79.5578 66.6569 82.6178 66.6569C85.6778 66.6569 88.1678 64.1669 88.1678 61.1069C88.1678 60.7069 88.1278 60.3269 88.0478 59.9569L92.9278 57.6369C93.4778 58.2969 94.2978 58.7169 95.2178 58.7169C95.5178 58.7169 95.8078 58.6569 96.0778 58.5769L107.288 76.2569C106.018 77.2769 105.208 78.8369 105.208 80.5869C105.208 83.6569 107.698 86.1369 110.758 86.1369C113.818 86.1369 116.308 83.6469 116.308 80.5869C116.308 78.7769 115.438 77.1669 114.088 76.1569C116.158 72.2669 118.128 68.5769 119.728 65.5869C119.998 65.6669 120.278 65.7169 120.568 65.7169C122.118 65.7169 123.378 64.5369 123.538 63.0269C138.028 63.0169 181.068 63.0869 189.228 63.0069C198.268 62.8169 221.038 62.2669 230.478 62.0369C221.208 61.8069 198.298 61.2569 189.228 61.0669L189.248 61.0169Z" fill="url(#paint0_linear_3417_3629)"/>
</g>
<defs>
<linearGradient id="paint0_linear_3417_3629" x1="-22.6422" y1="42.6969" x2="185.348" y2="44.6069" gradientUnits="userSpaceOnUse">
<stop stop-color="#39C7C4"/>
<stop offset="0.48" stop-color="#3A8CC0"/>
<stop offset="1" stop-color="#602FCD"/>
</linearGradient>
<clipPath id="clip0_3417_3629">
<rect width="332.26" height="86.1" fill="white"/>
</clipPath>
</defs>
</svg>
