<svg width="52" height="50" viewBox="0 0 52 50" fill="none" xmlns="http://www.w3.org/2000/svg">
<path d="M49.9861 34.8126C50.0013 34.7816 50.0149 34.75 50.0256 34.7175C53.1065 27.6124 52.556 18.9019 48.5545 12.2443C50.6908 9.69257 47.9159 6.03837 44.8814 7.45225C44.3482 6.90775 43.7883 6.3859 43.2081 5.89247C44.347 2.7991 40.5462 0.261505 38.1791 2.5727C31.299 -0.89866 22.7417 -0.854698 15.8997 2.69016C13.4657 0.112867 9.37806 2.87627 10.8517 6.10994C10.0077 6.84734 9.20888 7.64393 8.47231 8.48631C7.83634 9.21366 8.98849 10.2106 9.62009 9.4883C10.3053 8.7047 11.0478 7.96344 11.832 7.2765C13.3486 8.36946 15.5475 7.81267 16.3795 6.14436C19.1251 6.93405 21.747 8.06741 24.1902 9.52201C23.9856 10.259 24.0692 11.0821 24.4201 11.7624C22.4093 13.4981 20.5984 15.4614 19.0259 17.6131C17.5742 17.1748 15.974 17.9084 15.3427 19.2821C12.1413 19.2993 8.92996 19.6434 5.77702 20.3093C5.49861 19.7909 5.07652 19.3613 4.56481 19.0736C5.1572 16.7653 6.09546 14.5696 7.35928 12.5393C7.86286 11.7301 6.59172 10.889 6.06508 11.7349C4.7214 13.8934 3.72339 16.2276 3.09219 18.6814C-0.558642 18.7433 -1.17155 23.7899 2.304 24.7607C2.25279 31.943 5.36062 38.9259 10.7498 43.6827C9.62558 46.7171 13.2753 49.22 15.6838 47.0798C22.713 50.8145 31.5966 50.815 38.6262 47.081C41.0759 49.5018 44.9994 46.7973 43.6196 43.6326C46.397 41.1662 48.5547 38.1494 49.9861 34.8126ZM49.0259 33.1096C46.9164 31.0155 44.6078 29.1158 42.1431 27.4482C42.4931 26.3526 42.1889 25.1199 41.3714 24.3111C43.4441 20.8678 45.0711 17.1756 46.2165 13.3187C46.5981 13.32 46.965 13.2496 47.3031 13.1223C50.8126 19.0448 51.4545 26.6807 49.0259 33.1096ZM13.9578 41.7176C13.3164 35.4406 14.4419 29.1784 17.2273 23.5193C18.9577 24.0588 20.828 22.9218 21.164 21.147C26.4188 21.7942 31.4797 23.3357 36.2291 25.7364C36.0007 26.6235 36.1898 27.6018 36.7339 28.3398C31.3804 35.1167 24.3137 40.2162 16.226 43.1388C15.736 42.3635 14.9118 41.821 13.9578 41.7176ZM37.6559 26.508C37.6559 25.6451 38.3533 24.9431 39.2106 24.9431C41.2731 25.0289 41.2725 27.9874 39.2106 28.0729C38.3533 28.0729 37.6559 27.3709 37.6559 26.508ZM47.7779 10.231C47.7779 11.0939 47.0805 11.7958 46.2232 11.7958C44.1606 11.71 44.1611 8.75161 46.2232 8.66612C47.0805 8.66612 47.7779 9.36809 47.7779 10.231ZM43.7169 8.44083C42.6636 9.91959 43.1525 12.0573 44.7404 12.9362C43.6309 16.6566 42.058 20.218 40.057 23.5399C39.6387 23.4197 39.1743 23.3899 38.7442 23.4557C36.6527 18.993 33.6094 14.9734 29.8917 11.7626C30.243 11.0819 30.3267 10.2602 30.1218 9.52221C32.475 8.12132 34.9956 7.0173 37.6315 6.23249C38.5076 7.92253 40.8577 8.39971 42.3167 7.13457C42.8003 7.55022 43.2684 7.9869 43.7169 8.44083ZM25.6012 10.3489C25.6012 9.48596 26.2987 8.784 27.156 8.784C29.2185 8.86979 29.2179 11.8281 27.156 11.9136C26.2987 11.9136 25.6012 11.2116 25.6012 10.3489ZM40.3415 3.20339C41.1989 3.20339 41.8964 3.90536 41.8964 4.76825C41.8108 6.8442 38.8721 6.84369 38.7868 4.76825C38.7868 3.90536 39.4842 3.20339 40.3415 3.20339ZM13.6243 6.333C12.767 6.333 12.0696 5.63103 12.0696 4.76814C12.1551 2.69209 15.0939 2.6928 15.1791 4.76814C15.1791 5.63103 14.4816 6.333 13.6243 6.333ZM16.7003 4.65139C16.6924 4.44 16.6634 4.23421 16.615 4.03562C22.9943 0.739297 30.9639 0.681832 37.3924 3.88231C37.3098 4.15837 37.2646 4.45026 37.2631 4.75251C34.4905 5.57205 31.8395 6.72967 29.3644 8.20051C28.1748 6.9709 26.1376 6.9705 24.9476 8.20041C22.3684 6.66754 19.5999 5.476 16.7003 4.65139ZM25.4291 12.9038C26.4596 13.6066 27.852 13.6067 28.8826 12.9039C32.432 15.9661 35.3397 19.7993 37.3425 24.0559C37.2068 24.1602 37.08 24.2756 36.9633 24.4006C31.9561 21.8629 26.6127 20.2494 21.0623 19.6002C20.9125 19.147 20.6609 18.7401 20.3343 18.407C21.8239 16.385 23.5334 14.5383 25.4291 12.9038ZM18.1398 19.0052C18.9971 19.0052 19.6946 19.7071 19.6946 20.57C19.609 22.6461 16.6703 22.6455 16.585 20.57C16.5851 19.7071 17.2826 19.0052 18.1398 19.0052ZM1.50962 21.7686C1.50962 20.9057 2.20707 20.2037 3.06435 20.2037C5.12682 20.2895 5.12621 23.2478 3.06435 23.3333C2.20717 23.3334 1.50962 22.6314 1.50962 21.7686ZM3.82804 24.7601C3.82804 24.7601 6.14281 24.2557 6.14281 21.7887C6.14281 21.7887 12.0825 20.84 15.0709 20.8067C15.127 21.5444 15.4423 22.2101 15.9259 22.7125C12.956 28.6824 11.7582 35.3013 12.4477 41.9339C12.1508 42.0576 11.8774 42.2266 11.6358 42.4321C6.66397 37.9817 3.82804 30.5251 3.82804 24.7601ZM13.6243 46.3516C12.767 46.3516 12.0696 45.6496 12.0696 44.7868C12.0696 43.9239 12.767 43.2219 13.6243 43.2219C14.4701 43.2219 15.1791 43.9539 15.1791 44.7868C15.1791 45.6496 14.4816 46.3516 13.6243 46.3516ZM27.156 48.3697C23.4573 48.3697 19.7997 47.4846 16.5308 45.8042C16.6635 45.4242 16.722 44.9912 16.6962 44.588C25.0625 41.5747 32.3734 36.3087 37.9117 29.3066C38.3667 29.5198 38.8716 29.6177 39.3733 29.5914C39.7119 30.847 39.9794 32.128 40.169 33.4089C40.3142 34.3894 41.8224 34.1703 41.6768 33.1861C41.4755 31.8261 41.1905 30.4658 40.8286 29.1335C41.0108 29.0202 41.1801 28.8881 41.3344 28.7404C43.8774 30.4655 46.2484 32.4458 48.3963 34.6375C47.0642 37.5799 45.1254 40.2441 42.6621 42.4455C42.4185 42.2628 42.1469 42.1157 41.8554 42.0112C42.0052 40.5956 42.0704 39.1662 42.0485 37.7526C42.033 36.7578 40.509 36.7811 40.5245 37.7761C40.5457 39.135 40.4827 40.509 40.338 41.8697C38.5406 42.1553 37.3651 44.0176 37.8603 45.7628C34.5708 47.4699 30.8849 48.3697 27.156 48.3697ZM40.8214 46.484C39.9641 46.484 39.2667 45.782 39.2667 44.9192C39.3523 42.8431 42.291 42.8438 42.3763 44.9192C42.3763 45.782 41.6788 46.484 40.8214 46.484Z" fill="black"/>
<circle cx="27.1497" cy="10.3734" r="2.29542" stroke="#5B34CD" stroke-width="1.67742"/>
<circle cx="46.2201" cy="10.1966" r="2.29542" stroke="#5B34CD" stroke-width="1.67742"/>
<circle cx="40.8294" cy="44.9808" r="2.29542" stroke="#5B34CD" stroke-width="1.67742"/>
<circle cx="39.1576" cy="26.5287" r="2.29542" stroke="#5B34CD" stroke-width="1.67742"/>
</svg>
