<svg width="52" height="52" viewBox="0 0 52 52" fill="none" xmlns="http://www.w3.org/2000/svg">
<path d="M45.3556 30.5373C50.5503 16.4448 39.1227 0.740164 23.7602 1.00326C-0.707652 1.38921 -7.8073 33.2471 14.1989 43.5763C18.5737 45.5704 23.6493 46.136 28.3698 45.1583C30.2296 49.1853 34.3685 52 39.1749 52C51.1811 51.8841 55.4368 36.6227 45.3556 30.5373ZM2.12035 23.3143C2.12035 11.6511 11.828 2.16228 23.7602 2.16228C38.2429 1.9212 49.0664 16.639 44.2997 29.974C41.7705 28.7356 38.4741 28.4662 35.7344 29.3209C33.7299 27.9973 31.0881 27.3894 28.4676 26.9647C28.4771 26.5978 28.2405 26.3046 27.8658 26.2988H26.6338V25.462C28.8002 24.1256 30.0885 21.6691 30.7602 19.3731C32.5774 19.6727 33.6629 17.4341 32.1001 16.4327C32.3557 11.4588 30.5421 6.93395 23.7602 6.99596C15.5839 6.99596 15.5122 13.9912 15.5116 16.3927C13.8272 17.3257 14.8802 19.6704 16.7572 19.3731C17.4271 21.69 18.7095 24.1419 20.8871 25.4713V26.2982H19.654C19.2805 26.304 19.0433 26.5961 19.0522 26.9612C11.6952 28.1695 8.39709 30.1039 8.05619 37.8559C4.27248 33.9501 2.12154 28.7188 2.12154 23.3132L2.12035 23.3143ZM24.0946 32.8461H23.424L22.9248 31.4246L23.759 31.0108L24.5932 31.4251L24.0946 32.8461ZM14.6347 38.0379C14.3312 38.0124 14.0323 38.2761 14.0217 38.5965L13.8936 42.1234C12.1838 41.2658 10.5925 40.1925 9.15656 38.9072C9.55734 31.774 10.8196 29.5093 19.0895 28.1324C19.204 29.1448 19.5686 30.6017 20.6346 32.0185C20.7496 32.1715 20.9292 32.2544 21.113 32.2544C21.3081 32.2747 21.6845 32.0267 21.8577 31.9548L22.3847 33.4557C22.2057 34.2201 21.518 37.5749 21.3217 44.3337C19.1559 44.0914 17.0548 43.5357 15.0604 42.6786L15.2068 38.6371C15.2187 38.3172 14.962 38.0489 14.6347 38.0379ZM31.209 17.3547C31.9294 17.3871 31.7314 18.2807 31.0454 18.2274C31.1094 17.9278 31.1646 17.6363 31.209 17.3547ZM27.3779 13.0078C27.2232 12.5024 26.4406 12.4839 26.2621 12.9823C25.1262 15.7935 19.5253 14.7927 16.702 15.6544C16.7619 12.9052 17.3773 8.15555 23.7584 8.15555C29.3243 8.08196 31.0626 11.4773 30.9173 15.87C29.6308 15.2203 27.7396 14.0712 27.3773 13.0084L27.3779 13.0078ZM15.9034 17.5587C15.9699 17.4068 16.1359 17.3744 16.3108 17.3547C16.3546 17.638 16.4074 17.929 16.4708 18.2286C16.0368 18.2396 15.7345 17.9319 15.9034 17.5587ZM20.4573 16.3376C22.9486 16.1591 25.5121 15.9754 26.8212 14.3488C27.6524 15.3658 29.0759 16.2264 30.0968 16.7589C28.4759 27.9956 18.9401 27.8942 17.4123 16.6836C18.3378 16.4912 19.4079 16.4118 20.4573 16.3371V16.3376ZM23.695 26.4292C24.3127 26.4106 24.911 26.2293 25.4475 26.0409V27.2364C25.042 27.8194 24.3673 28.6846 23.759 29.4345C23.1513 28.6852 22.4772 27.8206 22.0717 27.2376V26.0421C22.5756 26.2264 23.111 26.366 23.695 26.4292ZM22.8401 30.1676L21.3087 30.9279C20.4247 29.5545 20.2528 28.1787 20.2314 27.459H20.8124C21.2559 28.1892 22.2312 29.4183 22.8401 30.1676ZM24.6791 30.1676C25.288 29.4183 26.2633 28.1886 26.7068 27.4584H27.2896C27.2706 28.1758 27.1016 29.5469 26.2111 30.9279L24.6791 30.1676ZM22.5051 44.4293C22.6758 38.4488 23.248 35.1241 23.4786 34.0057H24.0981C24.4373 35.043 25.3479 38.3445 25.626 44.38C24.5914 44.4699 23.5527 44.4838 22.5051 44.4293ZM26.8052 44.2456C26.4939 37.6137 25.4475 34.2514 25.1487 33.4175L25.6621 31.9554C26.0505 32.1547 26.5342 32.4717 26.8846 32.0185C27.9506 30.6022 28.3152 29.1459 28.4297 28.1335C30.5415 28.4818 32.6456 28.9553 34.3311 29.8425C29.0083 32.0313 25.9046 38.5432 27.9311 44.0631C27.5635 44.1326 27.1888 44.1929 26.8052 44.2456ZM39.1755 50.841C33.2912 50.841 28.5038 46.1615 28.5038 40.4098C29.0901 26.5718 49.2626 26.5758 49.8472 40.4098C49.8472 46.1615 45.0597 50.841 39.1755 50.841Z" fill="black"/>
<path d="M43.9117 35.172C43.6797 34.9427 43.3048 34.9427 43.0728 35.172L37.382 40.7977L34.9283 38.3722C34.6964 38.1429 34.3215 38.1429 34.0895 38.3722L32.174 40.2658C31.942 40.4951 31.942 40.8657 32.174 41.095L36.962 45.8282C37.0776 45.9425 37.2295 46 37.3814 46C37.5332 46 37.6851 45.9425 37.8008 45.8282L45.826 37.8948C46.058 37.6655 46.058 37.2949 45.826 37.0656L43.9105 35.172H43.9117ZM37.382 44.5843L33.4328 40.6804L34.5089 39.6166L36.9625 42.0421C37.1945 42.2714 37.5694 42.2714 37.8014 42.0421L43.4923 36.4164L44.5684 37.4802L37.382 44.5843Z" fill="#5B34CD"/>
</svg>
