<svg width="52" height="52" viewBox="0 0 52 52" fill="none" xmlns="http://www.w3.org/2000/svg">
<path fill-rule="evenodd" clip-rule="evenodd" d="M15.2422 5.37891C6.83032 5.37891 0 12.2088 0 20.6203C0 29.0317 6.83032 35.8616 15.2422 35.8616C23.6542 35.8616 30.4845 29.0317 30.4845 20.6203C30.4845 12.2088 23.6542 5.37891 15.2422 5.37891ZM15.2422 7.17201C22.6643 7.17201 28.6913 13.1986 28.6913 20.6203C28.6913 28.0419 22.6643 34.0685 15.2422 34.0685C7.82016 34.0685 1.7932 28.0419 1.7932 20.6203C1.7932 13.1986 7.82016 7.17201 15.2422 7.17201Z" fill="#5B34CD"/>
<path fill-rule="evenodd" clip-rule="evenodd" d="M15.2344 8.96387C8.80173 8.96387 3.57812 14.1872 3.57812 20.6195C3.57812 27.0518 8.80173 32.2751 15.2344 32.2751C21.6671 32.2751 26.8907 27.0518 26.8907 20.6195C26.8907 14.1872 21.6671 8.96387 15.2344 8.96387ZM15.2344 10.7579C20.6772 10.7579 25.0966 15.177 25.0966 20.6195C25.0966 26.062 20.6772 30.4811 15.2344 30.4811C9.79158 30.4811 5.37223 26.062 5.37223 20.6195C5.37223 15.177 9.79158 10.7579 15.2344 10.7579Z" fill="#5B34CD"/>
<path fill-rule="evenodd" clip-rule="evenodd" d="M14.3364 14.3458C12.3558 14.3458 10.75 15.9516 10.75 17.932C10.75 19.9125 12.3558 21.5182 14.3364 21.5182H16.1296C17.1204 21.5182 17.9228 22.3206 17.9228 23.3113C17.9228 24.302 17.1204 25.1044 16.1296 25.1044H14.3364C13.3457 25.1044 12.5432 24.302 12.5432 23.3113C12.5432 22.8164 12.1415 22.4148 11.6466 22.4148C11.1517 22.4148 10.75 22.8164 10.75 23.3113C10.75 25.2918 12.3558 26.8975 14.3364 26.8975V27.7941C14.3364 28.289 14.7381 28.6906 15.233 28.6906C15.7279 28.6906 16.1296 28.289 16.1296 27.7941V26.8975C18.1102 26.8975 19.716 25.2918 19.716 23.3113C19.716 21.3309 18.1102 19.7251 16.1296 19.7251H14.3364C13.3457 19.7251 12.5432 18.9227 12.5432 17.932C12.5432 16.9413 13.3457 16.1389 14.3364 16.1389H16.1296C17.1204 16.1389 17.9228 16.9413 17.9228 17.932C17.9228 18.4269 18.3245 18.8286 18.8194 18.8286C19.3143 18.8286 19.716 18.4269 19.716 17.932C19.716 15.9516 18.1102 14.3458 16.1296 14.3458V13.4493C16.1296 12.9544 15.7279 12.5527 15.233 12.5527C14.7381 12.5527 14.3364 12.9544 14.3364 13.4493V14.3458Z" fill="#5B34CD"/>
<path fill-rule="evenodd" clip-rule="evenodd" d="M8.96602 49.3103V42.1379C8.96602 40.6532 7.76188 39.4482 6.27622 39.4482H2.68981C1.20414 39.4482 0 40.6532 0 42.1379V49.3103C0 50.795 1.20414 51.9999 2.68981 51.9999H6.27622C7.76188 51.9999 8.96602 50.795 8.96602 49.3103ZM7.17282 42.1379V49.3103C7.17282 49.8052 6.77114 50.2068 6.27622 50.2068H2.68981C2.19488 50.2068 1.7932 49.8052 1.7932 49.3103V42.1379C1.7932 41.643 2.19488 41.2413 2.68981 41.2413H6.27622C6.77114 41.2413 7.17282 41.643 7.17282 42.1379Z" fill="black"/>
<path fill-rule="evenodd" clip-rule="evenodd" d="M19.716 49.3103V42.1379C19.716 40.6532 18.5119 39.4482 17.0262 39.4482H13.4398C11.9541 39.4482 10.75 40.6532 10.75 42.1379V49.3103C10.75 50.795 11.9541 51.9999 13.4398 51.9999H17.0262C18.5119 51.9999 19.716 50.795 19.716 49.3103ZM17.9228 42.1379V49.3103C17.9228 49.8052 17.5211 50.2068 17.0262 50.2068H13.4398C12.9449 50.2068 12.5432 49.8052 12.5432 49.3103V42.1379C12.5432 41.643 12.9449 41.2413 13.4398 41.2413H17.0262C17.5211 41.2413 17.9228 41.643 17.9228 42.1379Z" fill="black"/>
<path fill-rule="evenodd" clip-rule="evenodd" d="M30.4895 38.551C30.4895 37.0663 29.2853 35.8613 27.7997 35.8613H24.2132C22.7276 35.8613 21.5234 37.0663 21.5234 38.551V49.3096C21.5234 50.7943 22.7276 51.9992 24.2132 51.9992H27.7997C29.2853 51.9992 30.4895 50.7943 30.4895 49.3096V38.551ZM28.6963 38.551V49.3096C28.6963 49.8045 28.2946 50.2061 27.7997 50.2061H24.2132C23.7183 50.2061 23.3166 49.8045 23.3166 49.3096V38.551C23.3166 38.0561 23.7183 37.6544 24.2132 37.6544H27.7997C28.2946 37.6544 28.6963 38.0561 28.6963 38.551Z" fill="black"/>
<path fill-rule="evenodd" clip-rule="evenodd" d="M51.9973 27.7937C51.9973 27.0798 51.7139 26.3957 51.2092 25.8921C50.7053 25.3869 50.0212 25.1045 49.3075 25.1045H45.7211C45.0074 25.1045 44.3233 25.3869 43.8194 25.8921C43.3146 26.3957 43.0312 27.0798 43.0312 27.7937V49.3104C43.0312 50.0243 43.3146 50.7084 43.8194 51.212C44.3233 51.7172 45.0074 51.9996 45.7211 51.9996H49.3075C50.0212 51.9996 50.7053 51.7172 51.2092 51.212C51.7139 50.7084 51.9973 50.0243 51.9973 49.3104V27.7937ZM50.2041 27.7937V49.3104C50.2041 49.5489 50.1099 49.7764 49.9414 49.9443C49.7737 50.1122 49.5451 50.2079 49.3075 50.2079H45.7211C45.4835 50.2079 45.2548 50.1122 45.0872 49.9443C44.9186 49.7764 44.8245 49.5489 44.8245 49.3104V27.7937C44.8245 27.5552 44.9186 27.3277 45.0872 27.1598C45.2548 26.992 45.4835 26.8962 45.7211 26.8962H49.3075C49.5451 26.8962 49.7737 26.992 49.9414 27.1598C50.1099 27.3277 50.2041 27.5552 50.2041 27.7937Z" fill="black"/>
<path fill-rule="evenodd" clip-rule="evenodd" d="M37.6566 12.5517V20.6207C37.6566 22.1062 38.8607 23.3103 40.3464 23.3103H43.9328C45.4185 23.3103 46.6226 22.1062 46.6226 20.6207V12.5517H47.5192C48.5377 12.5517 49.4693 11.9761 49.9248 11.0652C50.3803 10.1534 50.2825 9.06322 49.671 8.24826L44.2914 1.07586C43.7831 0.398962 42.986 0 42.1396 0C41.2932 0 40.4961 0.398962 39.9877 1.07586L34.6081 8.24826C33.9967 9.06322 33.8989 10.1534 34.3544 11.0652C34.8099 11.9761 35.7414 12.5517 36.76 12.5517H37.6566ZM39.4498 11.6552C39.4498 11.1603 39.0481 10.7586 38.5532 10.7586H36.76C36.4202 10.7586 36.1099 10.5667 35.9584 10.2628C35.806 9.95888 35.8392 9.59577 36.0427 9.32411L41.4223 2.15171C41.5918 1.92578 41.8572 1.7931 42.1396 1.7931C42.422 1.7931 42.6874 1.92578 42.8569 2.15171L48.2365 9.32411C48.44 9.59577 48.4732 9.95888 48.3208 10.2628C48.1692 10.5667 47.859 10.7586 47.5192 10.7586H45.726C45.2311 10.7586 44.8294 11.1603 44.8294 11.6552V20.6207C44.8294 21.1155 44.4277 21.5172 43.9328 21.5172H40.3464C39.8515 21.5172 39.4498 21.1155 39.4498 20.6207V11.6552Z" fill="black"/>
<path fill-rule="evenodd" clip-rule="evenodd" d="M41.2473 27.7932C41.2473 27.0795 40.9639 26.3954 40.4592 25.8916C39.9553 25.3868 39.2712 25.1035 38.5575 25.1035H34.9711C34.2574 25.1035 33.5733 25.3868 33.0694 25.8916C32.5646 26.3954 32.2812 27.0795 32.2812 27.7932V49.3104C32.2812 50.024 32.5646 50.7081 33.0694 51.212C33.5733 51.7167 34.2574 52 34.9711 52H38.5575C39.2712 52 39.9553 51.7167 40.4592 51.212C40.9639 50.7081 41.2473 50.024 41.2473 49.3104V27.7932ZM39.4541 27.7932V49.3104C39.4541 49.548 39.3599 49.7766 39.1914 49.9442C39.0237 50.1128 38.7951 50.2069 38.5575 50.2069H34.9711C34.7335 50.2069 34.5048 50.1128 34.3372 49.9442C34.1686 49.7766 34.0745 49.548 34.0745 49.3104V27.7932C34.0745 27.5556 34.1686 27.327 34.3372 27.1593C34.5048 26.9908 34.7335 26.8966 34.9711 26.8966H38.5575C38.7951 26.8966 39.0237 26.9908 39.1914 27.1593C39.3599 27.327 39.4541 27.5556 39.4541 27.7932Z" fill="black"/>
</svg>
