<svg width="26" height="26" viewBox="0 0 26 26" fill="none" xmlns="http://www.w3.org/2000/svg">
<path d="M14.2008 18.0729H1.7292C1.3196 18.0729 0.986133 17.7394 0.986133 17.3297V6.75608H3.60146C3.7086 6.75608 3.81096 6.7121 3.88471 6.63459C4.00609 6.51816 4.10347 6.41166 4.18623 6.31824C4.20875 6.29282 4.22992 6.26868 4.25006 6.24573C4.30542 6.18262 4.35292 6.12846 4.39894 6.08128C4.51979 5.95737 4.61078 5.90214 4.75236 5.90214H8.10824C8.25953 5.90214 8.35373 5.96466 8.46351 6.08918C8.50824 6.13992 8.5528 6.1978 8.60418 6.26453C8.61852 6.28317 8.6334 6.3025 8.64897 6.32255C8.71856 6.41223 8.79882 6.51236 8.89804 6.61735C8.9722 6.7053 9.08156 6.75608 9.19669 6.75608H20.8085V13.0485C20.8085 13.2642 20.9833 13.4392 21.1992 13.4392C21.415 13.4392 21.5899 13.2643 21.5899 13.0485L21.5899 12.9689L21.5899 12.9588L21.5899 12.957L21.5899 12.9565V12.9565L21.5899 12.9562L21.5899 12.9559L21.5899 12.692L21.5909 3.44138C21.5909 2.60051 20.907 1.9166 20.0661 1.9166H1.72946C0.888592 1.9166 0.204687 2.60051 0.204687 3.44137V17.3297C0.204687 18.1703 0.888479 18.8543 1.7292 18.8543H14.2008C14.4166 18.8543 14.5915 18.6793 14.5915 18.4636C14.5915 18.2479 14.4166 18.0729 14.2008 18.0729ZM20.8084 5.97468H9.37512C9.33039 5.92705 9.28346 5.86595 9.22769 5.79336C9.22405 5.78862 9.22038 5.78384 9.21667 5.77901C9.14651 5.68775 9.06543 5.58369 8.96799 5.48676C8.77046 5.29026 8.50316 5.1207 8.10824 5.1207H4.75231C4.37627 5.1207 4.11986 5.27356 3.91686 5.46113C3.81978 5.55082 3.73393 5.64937 3.65445 5.74061L3.64775 5.7483C3.5744 5.83247 3.50687 5.90942 3.43681 5.97468H0.986133V3.44142C0.986133 3.03182 1.31961 2.69845 1.7292 2.69845H20.0653C20.475 2.69845 20.8084 3.03186 20.8084 3.44142V5.97468Z" fill="black" stroke="black" stroke-width="0.2"/>
<path d="M13.6551 3.46191C13.1388 3.46191 12.7188 3.88188 12.7188 4.39822C12.7188 4.91456 13.1387 5.33452 13.6551 5.33452C14.1714 5.33452 14.5914 4.91456 14.5914 4.39822C14.5914 3.88188 14.1713 3.46191 13.6551 3.46191ZM13.6551 4.75308C13.4593 4.75308 13.3002 4.59393 13.3002 4.39822C13.3002 4.20251 13.4593 4.04336 13.6551 4.04336C13.8508 4.04336 14.0099 4.20251 14.0099 4.39822C14.0099 4.59393 13.8508 4.75308 13.6551 4.75308Z" fill="black"/>
<path d="M16.1785 3.40039C15.6622 3.40039 15.2422 3.82035 15.2422 4.3367C15.2422 4.85304 15.6621 5.273 16.1785 5.273C16.6948 5.273 17.1148 4.85304 17.1148 4.3367C17.1148 3.82035 16.6948 3.40039 16.1785 3.40039ZM16.1785 4.69155C15.9828 4.69155 15.8236 4.53241 15.8236 4.3367C15.8236 4.14098 15.9828 3.98184 16.1785 3.98184C16.3742 3.98184 16.5334 4.14098 16.5334 4.3367C16.5334 4.53236 16.3742 4.69155 16.1785 4.69155Z" fill="black"/>
<path d="M18.6941 3.33887C18.1778 3.33887 17.7578 3.75883 17.7578 4.27517C17.7578 4.79152 18.1778 5.21148 18.6941 5.21148C19.2104 5.21148 19.6305 4.79152 19.6305 4.27517C19.6305 3.75883 19.2104 3.33887 18.6941 3.33887ZM18.6941 4.63003C18.4984 4.63003 18.3393 4.47088 18.3393 4.27517C18.3393 4.07946 18.4984 3.92031 18.6941 3.92031C18.8898 3.92031 19.0491 4.07946 19.0491 4.27517C19.0491 4.47088 18.8898 4.63003 18.6941 4.63003Z" fill="black"/>
<path d="M15.3921 13.0719C15.3921 12.8932 15.3631 12.7218 15.3118 12.5607L17.0892 11.2017C17.3829 11.4431 17.7581 11.5897 18.1679 11.5897C19.1077 11.5897 19.8722 10.8254 19.8722 9.88548C19.8722 8.94558 19.1077 8.18125 18.1679 8.18125C17.2281 8.18125 16.4636 8.94559 16.4636 9.88548C16.4636 10.1337 16.518 10.369 16.6138 10.5815L14.9082 11.8856C14.5988 11.5671 14.1666 11.3677 13.6877 11.3677C13.1755 11.3677 12.7166 11.5957 12.4044 11.9538L10.4249 10.7445C10.4539 10.6211 10.4703 10.4925 10.4703 10.3596C10.4703 9.41973 9.7058 8.65534 8.76602 8.65534C7.82624 8.65534 7.06179 9.41968 7.06179 10.3596C7.06179 10.6798 7.15086 10.9797 7.3051 11.2358L4.87606 13.6665C4.56488 13.3313 4.12066 13.1207 3.62777 13.1207C2.68793 13.1207 1.92344 13.8852 1.92344 14.8251C1.92344 15.7649 2.68789 16.5293 3.62777 16.5293C4.56755 16.5293 5.332 15.765 5.332 14.8251C5.332 14.6698 5.31108 14.5192 5.2719 14.376L7.85096 11.7952C8.11531 11.9646 8.42904 12.064 8.76607 12.064C9.29285 12.064 9.76294 11.8226 10.0753 11.4467L12.0377 12.6456C12.0024 12.7819 11.9835 12.9248 11.9835 13.0719C11.9835 14.0117 12.748 14.7761 13.6877 14.7761C14.6276 14.7761 15.3921 14.0118 15.3921 13.0719ZM18.1679 8.96275C18.6767 8.96275 19.0908 9.37675 19.0908 9.88553C19.0908 10.3943 18.6767 10.8083 18.1679 10.8083C17.6591 10.8083 17.2451 10.3943 17.2451 9.88553C17.2451 9.37674 17.6591 8.96275 18.1679 8.96275ZM3.62782 15.748C3.11901 15.748 2.70493 15.334 2.70493 14.8252C2.70493 14.3164 3.11903 13.9022 3.62782 13.9022C4.13659 13.9022 4.55061 14.3164 4.55061 14.8252C4.55061 15.334 4.13662 15.748 3.62782 15.748ZM8.76612 11.2826C8.25735 11.2826 7.84334 10.8685 7.84334 10.3596C7.84334 9.85083 8.25732 9.43684 8.76612 9.43684C9.27492 9.43684 9.68891 9.85083 9.68891 10.3596C9.68891 10.8685 9.27489 11.2826 8.76612 11.2826ZM13.6878 13.9948C13.179 13.9948 12.765 13.5808 12.765 13.072C12.765 12.5632 13.179 12.1492 13.6878 12.1492C14.1966 12.1492 14.6107 12.5632 14.6107 13.072C14.6107 13.5808 14.1966 13.9948 13.6878 13.9948Z" fill="black" stroke="black" stroke-width="0.2"/>
<path d="M18.7903 21.0361C20.9272 22.3894 23.6757 20.4797 23.1174 17.9857L23.1174 17.9855C22.905 17.0429 22.238 16.2755 21.3332 15.9326L21.333 15.9325C19.2242 15.1392 17.0243 17.0056 17.5271 19.2425L17.6247 19.2205M18.7903 21.0361L18.8438 20.9516M18.7903 21.0361L18.8438 20.9516M18.7903 21.0361C18.1431 20.6265 17.6943 19.9891 17.5271 19.2424L17.6247 19.2205M18.8438 20.9516C18.219 20.5562 17.786 19.9413 17.6247 19.2205M18.8438 20.9516C20.906 22.2576 23.5585 20.414 23.0198 18.0075C22.8148 17.0977 22.1712 16.3571 21.2978 16.0261C19.2622 15.2603 17.1396 17.0625 17.6247 19.2205M18.2896 19.0713L18.2896 19.0712C17.9236 17.4446 19.5235 16.0869 21.0571 16.6636C21.7153 16.9131 22.2005 17.4714 22.3549 18.157C22.7579 19.9571 20.7713 21.3654 19.2082 20.3759C18.7373 20.0778 18.4112 19.6149 18.2896 19.0713Z" fill="#5B34CD" stroke="#5B34CD" stroke-width="0.2"/>
<mask id="path-7-outside-1_1484_4241" maskUnits="userSpaceOnUse" x="13.9531" y="12.2451" width="12" height="12" fill="black">
<rect fill="white" x="13.9531" y="12.2451" width="12" height="12"/>
<path d="M25.4234 16.8873C25.3297 16.469 24.9147 16.2088 24.5 16.303L24.0154 16.4122C23.903 16.224 23.7764 16.0447 23.6367 15.8763L23.9031 15.4544C24.1298 15.094 24.022 14.6169 23.6633 14.3911L22.7087 13.7869C22.3465 13.556 21.87 13.6664 21.644 14.0256L21.3764 14.4473C21.168 14.3931 20.9488 14.3548 20.73 14.3343L20.6208 13.8483C20.5276 13.4328 20.1129 13.1707 19.6972 13.264L18.5952 13.5138C18.1788 13.607 17.9171 14.0179 18.0107 14.435L18.1202 14.9218C17.9319 15.0342 17.7527 15.1606 17.5844 15.3001L17.1624 15.0323C16.7996 14.8041 16.3245 14.9135 16.0991 15.2719L15.4926 16.229C15.2674 16.5841 15.3689 17.0629 15.732 17.2935L16.1535 17.5596C16.0995 17.773 16.0621 17.9896 16.0419 18.2074L15.5563 18.3164C15.1411 18.4094 14.8789 18.8223 14.9718 19.2374L15.22 20.3427C15.3134 20.7566 15.7274 21.0188 16.143 20.9245L16.6289 20.8151C16.7393 21.0006 16.8658 21.1803 17.0071 21.3521L16.7407 21.774C16.5136 22.1321 16.6205 22.6092 16.9799 22.8382L17.9359 23.4433C18.2948 23.669 18.7724 23.5623 19.0014 23.2033L19.2674 22.7818C19.4798 22.8357 19.6957 22.8732 19.9128 22.8942L20.0224 23.3814C20.103 23.7388 20.4225 23.9823 20.7759 23.9823C20.9263 23.9823 20.9266 23.9615 22.0503 23.7153C22.4647 23.622 22.7258 23.2086 22.6324 22.7943L22.5229 22.3077C22.7113 22.1953 22.8907 22.0685 23.0591 21.9288L23.4795 22.1943C23.8376 22.4227 24.3157 22.3185 24.5439 21.9556L25.1511 20.9993C25.3771 20.6402 25.2696 20.1633 24.9116 19.9362L24.4897 19.6683C24.5435 19.4567 24.5811 19.2408 24.6023 19.0222L25.0868 18.9128C25.5033 18.8197 25.7649 18.4065 25.6712 17.9915L25.4234 16.8873ZM24.9593 18.3455L24.2635 18.5026C24.1358 18.5314 24.043 18.6423 24.0372 18.7731C24.0229 19.0931 23.9678 19.4088 23.8736 19.7113C23.8345 19.8367 23.8845 19.9728 23.9954 20.0432L24.6001 20.4271C24.6885 20.4831 24.7149 20.6008 24.6597 20.6886L24.0525 21.645C23.9959 21.735 23.8796 21.7597 23.7909 21.7033L23.1862 21.3214C23.075 21.2513 22.9306 21.2644 22.8339 21.3536C22.6004 21.5691 22.3386 21.7541 22.056 21.9034C21.94 21.9647 21.8794 22.0962 21.9082 22.2242L22.0652 22.922C22.0882 23.0238 22.0241 23.1253 21.9227 23.148L20.8182 23.3961C20.7155 23.4196 20.6127 23.3552 20.5897 23.2536L20.4327 22.5558C20.4039 22.4278 20.293 22.3349 20.1619 22.3292C19.5394 22.3014 19.2607 22.1527 19.1373 22.1527C19.0396 22.1527 18.9458 22.2023 18.8915 22.2882L18.5105 22.8918C18.4538 22.9809 18.335 23.0074 18.2463 22.9516L17.2916 22.3475C17.2028 22.2909 17.1759 22.1733 17.232 22.085L17.6138 21.4803C17.6835 21.3697 17.671 21.2265 17.5832 21.1297C17.3625 20.8865 17.1779 20.624 17.0345 20.3494C16.9735 20.2326 16.842 20.1709 16.713 20.2004L16.0157 20.3573C15.9119 20.3806 15.81 20.3163 15.7871 20.215L15.5392 19.1105C15.5161 19.0073 15.5805 18.9068 15.6835 18.8839L16.3824 18.7265C16.5104 18.6973 16.6029 18.5856 16.6081 18.4545C16.6204 18.138 16.6748 17.8221 16.7698 17.5155C16.8085 17.39 16.7584 17.2539 16.6473 17.1837L16.0431 16.8021C15.9554 16.7463 15.9282 16.6279 15.9838 16.5404L16.5908 15.5823C16.6452 15.4958 16.7618 15.4666 16.8519 15.5238L17.4566 15.9075C17.568 15.9779 17.7128 15.965 17.8094 15.8757C18.0428 15.6603 18.3045 15.4754 18.5873 15.3261C18.7033 15.2647 18.764 15.1334 18.7351 15.0053L18.5782 14.3077C18.5554 14.2063 18.6176 14.1047 18.7231 14.0811L19.8251 13.8313C19.9278 13.8078 20.0307 13.8729 20.0536 13.9757L20.2105 14.6736C20.2394 14.8019 20.3509 14.895 20.4824 14.9003C20.8484 14.9151 21.1321 14.9773 21.4222 15.0644C21.5472 15.1022 21.6814 15.0517 21.7513 14.9417L22.1357 14.3363C22.1913 14.2478 22.3073 14.2201 22.3969 14.2778L23.353 14.8828C23.441 14.9383 23.4671 15.0558 23.4114 15.1444L23.0296 15.7491C22.9593 15.8602 22.9725 16.0048 23.0617 16.1013C23.2771 16.3351 23.4622 16.5968 23.6114 16.8792C23.6727 16.9954 23.8044 17.0567 23.9323 17.027L24.6278 16.8703C24.7282 16.847 24.8326 16.9093 24.8562 17.0143L25.1042 18.1191V18.1194C25.1268 18.2194 25.0643 18.3219 24.9593 18.3455Z"/>
</mask>
<path d="M25.4234 16.8873C25.3297 16.469 24.9147 16.2088 24.5 16.303L24.0154 16.4122C23.903 16.224 23.7764 16.0447 23.6367 15.8763L23.9031 15.4544C24.1298 15.094 24.022 14.6169 23.6633 14.3911L22.7087 13.7869C22.3465 13.556 21.87 13.6664 21.644 14.0256L21.3764 14.4473C21.168 14.3931 20.9488 14.3548 20.73 14.3343L20.6208 13.8483C20.5276 13.4328 20.1129 13.1707 19.6972 13.264L18.5952 13.5138C18.1788 13.607 17.9171 14.0179 18.0107 14.435L18.1202 14.9218C17.9319 15.0342 17.7527 15.1606 17.5844 15.3001L17.1624 15.0323C16.7996 14.8041 16.3245 14.9135 16.0991 15.2719L15.4926 16.229C15.2674 16.5841 15.3689 17.0629 15.732 17.2935L16.1535 17.5596C16.0995 17.773 16.0621 17.9896 16.0419 18.2074L15.5563 18.3164C15.1411 18.4094 14.8789 18.8223 14.9718 19.2374L15.22 20.3427C15.3134 20.7566 15.7274 21.0188 16.143 20.9245L16.6289 20.8151C16.7393 21.0006 16.8658 21.1803 17.0071 21.3521L16.7407 21.774C16.5136 22.1321 16.6205 22.6092 16.9799 22.8382L17.9359 23.4433C18.2948 23.669 18.7724 23.5623 19.0014 23.2033L19.2674 22.7818C19.4798 22.8357 19.6957 22.8732 19.9128 22.8942L20.0224 23.3814C20.103 23.7388 20.4225 23.9823 20.7759 23.9823C20.9263 23.9823 20.9266 23.9615 22.0503 23.7153C22.4647 23.622 22.7258 23.2086 22.6324 22.7943L22.5229 22.3077C22.7113 22.1953 22.8907 22.0685 23.0591 21.9288L23.4795 22.1943C23.8376 22.4227 24.3157 22.3185 24.5439 21.9556L25.1511 20.9993C25.3771 20.6402 25.2696 20.1633 24.9116 19.9362L24.4897 19.6683C24.5435 19.4567 24.5811 19.2408 24.6023 19.0222L25.0868 18.9128C25.5033 18.8197 25.7649 18.4065 25.6712 17.9915L25.4234 16.8873ZM24.9593 18.3455L24.2635 18.5026C24.1358 18.5314 24.043 18.6423 24.0372 18.7731C24.0229 19.0931 23.9678 19.4088 23.8736 19.7113C23.8345 19.8367 23.8845 19.9728 23.9954 20.0432L24.6001 20.4271C24.6885 20.4831 24.7149 20.6008 24.6597 20.6886L24.0525 21.645C23.9959 21.735 23.8796 21.7597 23.7909 21.7033L23.1862 21.3214C23.075 21.2513 22.9306 21.2644 22.8339 21.3536C22.6004 21.5691 22.3386 21.7541 22.056 21.9034C21.94 21.9647 21.8794 22.0962 21.9082 22.2242L22.0652 22.922C22.0882 23.0238 22.0241 23.1253 21.9227 23.148L20.8182 23.3961C20.7155 23.4196 20.6127 23.3552 20.5897 23.2536L20.4327 22.5558C20.4039 22.4278 20.293 22.3349 20.1619 22.3292C19.5394 22.3014 19.2607 22.1527 19.1373 22.1527C19.0396 22.1527 18.9458 22.2023 18.8915 22.2882L18.5105 22.8918C18.4538 22.9809 18.335 23.0074 18.2463 22.9516L17.2916 22.3475C17.2028 22.2909 17.1759 22.1733 17.232 22.085L17.6138 21.4803C17.6835 21.3697 17.671 21.2265 17.5832 21.1297C17.3625 20.8865 17.1779 20.624 17.0345 20.3494C16.9735 20.2326 16.842 20.1709 16.713 20.2004L16.0157 20.3573C15.9119 20.3806 15.81 20.3163 15.7871 20.215L15.5392 19.1105C15.5161 19.0073 15.5805 18.9068 15.6835 18.8839L16.3824 18.7265C16.5104 18.6973 16.6029 18.5856 16.6081 18.4545C16.6204 18.138 16.6748 17.8221 16.7698 17.5155C16.8085 17.39 16.7584 17.2539 16.6473 17.1837L16.0431 16.8021C15.9554 16.7463 15.9282 16.6279 15.9838 16.5404L16.5908 15.5823C16.6452 15.4958 16.7618 15.4666 16.8519 15.5238L17.4566 15.9075C17.568 15.9779 17.7128 15.965 17.8094 15.8757C18.0428 15.6603 18.3045 15.4754 18.5873 15.3261C18.7033 15.2647 18.764 15.1334 18.7351 15.0053L18.5782 14.3077C18.5554 14.2063 18.6176 14.1047 18.7231 14.0811L19.8251 13.8313C19.9278 13.8078 20.0307 13.8729 20.0536 13.9757L20.2105 14.6736C20.2394 14.8019 20.3509 14.895 20.4824 14.9003C20.8484 14.9151 21.1321 14.9773 21.4222 15.0644C21.5472 15.1022 21.6814 15.0517 21.7513 14.9417L22.1357 14.3363C22.1913 14.2478 22.3073 14.2201 22.3969 14.2778L23.353 14.8828C23.441 14.9383 23.4671 15.0558 23.4114 15.1444L23.0296 15.7491C22.9593 15.8602 22.9725 16.0048 23.0617 16.1013C23.2771 16.3351 23.4622 16.5968 23.6114 16.8792C23.6727 16.9954 23.8044 17.0567 23.9323 17.027L24.6278 16.8703C24.7282 16.847 24.8326 16.9093 24.8562 17.0143L25.1042 18.1191V18.1194C25.1268 18.2194 25.0643 18.3219 24.9593 18.3455Z" fill="#5B34CD"/>
<path d="M25.4234 16.8873C25.3297 16.469 24.9147 16.2088 24.5 16.303L24.0154 16.4122C23.903 16.224 23.7764 16.0447 23.6367 15.8763L23.9031 15.4544C24.1298 15.094 24.022 14.6169 23.6633 14.3911L22.7087 13.7869C22.3465 13.556 21.87 13.6664 21.644 14.0256L21.3764 14.4473C21.168 14.3931 20.9488 14.3548 20.73 14.3343L20.6208 13.8483C20.5276 13.4328 20.1129 13.1707 19.6972 13.264L18.5952 13.5138C18.1788 13.607 17.9171 14.0179 18.0107 14.435L18.1202 14.9218C17.9319 15.0342 17.7527 15.1606 17.5844 15.3001L17.1624 15.0323C16.7996 14.8041 16.3245 14.9135 16.0991 15.2719L15.4926 16.229C15.2674 16.5841 15.3689 17.0629 15.732 17.2935L16.1535 17.5596C16.0995 17.773 16.0621 17.9896 16.0419 18.2074L15.5563 18.3164C15.1411 18.4094 14.8789 18.8223 14.9718 19.2374L15.22 20.3427C15.3134 20.7566 15.7274 21.0188 16.143 20.9245L16.6289 20.8151C16.7393 21.0006 16.8658 21.1803 17.0071 21.3521L16.7407 21.774C16.5136 22.1321 16.6205 22.6092 16.9799 22.8382L17.9359 23.4433C18.2948 23.669 18.7724 23.5623 19.0014 23.2033L19.2674 22.7818C19.4798 22.8357 19.6957 22.8732 19.9128 22.8942L20.0224 23.3814C20.103 23.7388 20.4225 23.9823 20.7759 23.9823C20.9263 23.9823 20.9266 23.9615 22.0503 23.7153C22.4647 23.622 22.7258 23.2086 22.6324 22.7943L22.5229 22.3077C22.7113 22.1953 22.8907 22.0685 23.0591 21.9288L23.4795 22.1943C23.8376 22.4227 24.3157 22.3185 24.5439 21.9556L25.1511 20.9993C25.3771 20.6402 25.2696 20.1633 24.9116 19.9362L24.4897 19.6683C24.5435 19.4567 24.5811 19.2408 24.6023 19.0222L25.0868 18.9128C25.5033 18.8197 25.7649 18.4065 25.6712 17.9915L25.4234 16.8873ZM24.9593 18.3455L24.2635 18.5026C24.1358 18.5314 24.043 18.6423 24.0372 18.7731C24.0229 19.0931 23.9678 19.4088 23.8736 19.7113C23.8345 19.8367 23.8845 19.9728 23.9954 20.0432L24.6001 20.4271C24.6885 20.4831 24.7149 20.6008 24.6597 20.6886L24.0525 21.645C23.9959 21.735 23.8796 21.7597 23.7909 21.7033L23.1862 21.3214C23.075 21.2513 22.9306 21.2644 22.8339 21.3536C22.6004 21.5691 22.3386 21.7541 22.056 21.9034C21.94 21.9647 21.8794 22.0962 21.9082 22.2242L22.0652 22.922C22.0882 23.0238 22.0241 23.1253 21.9227 23.148L20.8182 23.3961C20.7155 23.4196 20.6127 23.3552 20.5897 23.2536L20.4327 22.5558C20.4039 22.4278 20.293 22.3349 20.1619 22.3292C19.5394 22.3014 19.2607 22.1527 19.1373 22.1527C19.0396 22.1527 18.9458 22.2023 18.8915 22.2882L18.5105 22.8918C18.4538 22.9809 18.335 23.0074 18.2463 22.9516L17.2916 22.3475C17.2028 22.2909 17.1759 22.1733 17.232 22.085L17.6138 21.4803C17.6835 21.3697 17.671 21.2265 17.5832 21.1297C17.3625 20.8865 17.1779 20.624 17.0345 20.3494C16.9735 20.2326 16.842 20.1709 16.713 20.2004L16.0157 20.3573C15.9119 20.3806 15.81 20.3163 15.7871 20.215L15.5392 19.1105C15.5161 19.0073 15.5805 18.9068 15.6835 18.8839L16.3824 18.7265C16.5104 18.6973 16.6029 18.5856 16.6081 18.4545C16.6204 18.138 16.6748 17.8221 16.7698 17.5155C16.8085 17.39 16.7584 17.2539 16.6473 17.1837L16.0431 16.8021C15.9554 16.7463 15.9282 16.6279 15.9838 16.5404L16.5908 15.5823C16.6452 15.4958 16.7618 15.4666 16.8519 15.5238L17.4566 15.9075C17.568 15.9779 17.7128 15.965 17.8094 15.8757C18.0428 15.6603 18.3045 15.4754 18.5873 15.3261C18.7033 15.2647 18.764 15.1334 18.7351 15.0053L18.5782 14.3077C18.5554 14.2063 18.6176 14.1047 18.7231 14.0811L19.8251 13.8313C19.9278 13.8078 20.0307 13.8729 20.0536 13.9757L20.2105 14.6736C20.2394 14.8019 20.3509 14.895 20.4824 14.9003C20.8484 14.9151 21.1321 14.9773 21.4222 15.0644C21.5472 15.1022 21.6814 15.0517 21.7513 14.9417L22.1357 14.3363C22.1913 14.2478 22.3073 14.2201 22.3969 14.2778L23.353 14.8828C23.441 14.9383 23.4671 15.0558 23.4114 15.1444L23.0296 15.7491C22.9593 15.8602 22.9725 16.0048 23.0617 16.1013C23.2771 16.3351 23.4622 16.5968 23.6114 16.8792C23.6727 16.9954 23.8044 17.0567 23.9323 17.027L24.6278 16.8703C24.7282 16.847 24.8326 16.9093 24.8562 17.0143L25.1042 18.1191V18.1194C25.1268 18.2194 25.0643 18.3219 24.9593 18.3455Z" stroke="#5B34CD" stroke-width="0.4" mask="url(#path-7-outside-1_1484_4241)"/>
</svg>
